<mxfile host="Electron" modified="2024-04-12T01:36:48.900Z" agent="Mozilla/5.0 (Windows NT 10.0; Win64; x64) AppleWebKit/537.36 (KHTML, like Gecko) draw.io/24.1.0 Chrome/120.0.6099.109 Electron/28.1.0 Safari/537.36" etag="ZBpkQd1yj_y6Z1cBIEUS" version="24.1.0" type="device" pages="2">
  <diagram name="ER-Diagram" id="r5PxuxiK_SzBhYWh79iK">
    <mxGraphModel dx="2020" dy="1039" grid="1" gridSize="14" guides="1" tooltips="1" connect="1" arrows="1" fold="1" page="1" pageScale="1" pageWidth="850" pageHeight="1100" math="0" shadow="0">
      <root>
        <mxCell id="0" />
        <mxCell id="1" parent="0" />
        <mxCell id="N4vXA2fX9hWh01HENjKw-13" value="Members" style="swimlane;fontStyle=1;align=center;verticalAlign=top;childLayout=stackLayout;horizontal=1;startSize=26;horizontalStack=0;resizeParent=1;resizeParentMax=0;resizeLast=0;collapsible=1;marginBottom=0;whiteSpace=wrap;html=1;" parent="1" vertex="1">
          <mxGeometry x="636" y="330" width="160" height="280" as="geometry" />
        </mxCell>
        <mxCell id="N4vXA2fX9hWh01HENjKw-30" value="&lt;u&gt;MemberID&lt;/u&gt;" style="text;strokeColor=none;fillColor=none;align=left;verticalAlign=top;spacingLeft=4;spacingRight=4;overflow=hidden;rotatable=0;points=[[0,0.5],[1,0.5]];portConstraint=eastwest;whiteSpace=wrap;html=1;" parent="N4vXA2fX9hWh01HENjKw-13" vertex="1">
          <mxGeometry y="26" width="160" height="26" as="geometry" />
        </mxCell>
        <mxCell id="N4vXA2fX9hWh01HENjKw-16" value="Name&lt;br&gt;&lt;span style=&quot;white-space: pre;&quot;&gt;&#x9;&lt;/span&gt;FName&lt;br&gt;&lt;span style=&quot;white-space: pre;&quot;&gt;&#x9;&lt;/span&gt;LName&lt;br&gt;&lt;div&gt;&lt;br&gt;&lt;/div&gt;&lt;div&gt;email&lt;/div&gt;&lt;div&gt;&lt;br&gt;&lt;/div&gt;&lt;div&gt;passw&lt;span style=&quot;background-color: initial;&quot;&gt;ord&lt;/span&gt;&lt;/div&gt;" style="text;strokeColor=none;fillColor=none;align=left;verticalAlign=top;spacingLeft=4;spacingRight=4;overflow=hidden;rotatable=0;points=[[0,0.5],[1,0.5]];portConstraint=eastwest;whiteSpace=wrap;html=1;" parent="N4vXA2fX9hWh01HENjKw-13" vertex="1">
          <mxGeometry y="52" width="160" height="110" as="geometry" />
        </mxCell>
        <mxCell id="N4vXA2fX9hWh01HENjKw-17" value="DoB" style="text;strokeColor=none;fillColor=none;align=left;verticalAlign=top;spacingLeft=4;spacingRight=4;overflow=hidden;rotatable=0;points=[[0,0.5],[1,0.5]];portConstraint=eastwest;whiteSpace=wrap;html=1;" parent="N4vXA2fX9hWh01HENjKw-13" vertex="1">
          <mxGeometry y="162" width="160" height="26" as="geometry" />
        </mxCell>
        <mxCell id="N4vXA2fX9hWh01HENjKw-18" value="Address&lt;div&gt;&amp;nbsp; &amp;nbsp;StrretName&lt;/div&gt;&lt;div&gt;&amp;nbsp; &amp;nbsp;City&lt;/div&gt;&lt;div&gt;&amp;nbsp; &amp;nbsp; Province&lt;/div&gt;&lt;div&gt;&amp;nbsp; &amp;nbsp;PostalCode&lt;/div&gt;" style="text;strokeColor=none;fillColor=none;align=left;verticalAlign=top;spacingLeft=4;spacingRight=4;overflow=hidden;rotatable=0;points=[[0,0.5],[1,0.5]];portConstraint=eastwest;whiteSpace=wrap;html=1;" parent="N4vXA2fX9hWh01HENjKw-13" vertex="1">
          <mxGeometry y="188" width="160" height="92" as="geometry" />
        </mxCell>
        <mxCell id="N4vXA2fX9hWh01HENjKw-23" value="Trainers" style="swimlane;fontStyle=1;align=center;verticalAlign=top;childLayout=stackLayout;horizontal=1;startSize=26;horizontalStack=0;resizeParent=1;resizeParentMax=0;resizeLast=0;collapsible=1;marginBottom=0;whiteSpace=wrap;html=1;" parent="1" vertex="1">
          <mxGeometry x="296" y="342" width="160" height="202" as="geometry" />
        </mxCell>
        <mxCell id="N4vXA2fX9hWh01HENjKw-33" value="&lt;u&gt;TrainerID&lt;/u&gt;" style="text;strokeColor=none;fillColor=none;align=left;verticalAlign=top;spacingLeft=4;spacingRight=4;overflow=hidden;rotatable=0;points=[[0,0.5],[1,0.5]];portConstraint=eastwest;whiteSpace=wrap;html=1;" parent="N4vXA2fX9hWh01HENjKw-23" vertex="1">
          <mxGeometry y="26" width="160" height="26" as="geometry" />
        </mxCell>
        <mxCell id="N4vXA2fX9hWh01HENjKw-26" value="Name&lt;br&gt;&lt;span style=&quot;white-space: pre;&quot;&gt;&#x9;&lt;/span&gt;FName&lt;br&gt;&lt;span style=&quot;white-space: pre;&quot;&gt;&#x9;&lt;/span&gt;LName" style="text;strokeColor=none;fillColor=none;align=left;verticalAlign=top;spacingLeft=4;spacingRight=4;overflow=hidden;rotatable=0;points=[[0,0.5],[1,0.5]];portConstraint=eastwest;whiteSpace=wrap;html=1;" parent="N4vXA2fX9hWh01HENjKw-23" vertex="1">
          <mxGeometry y="52" width="160" height="60" as="geometry" />
        </mxCell>
        <mxCell id="N4vXA2fX9hWh01HENjKw-34" value="email" style="text;strokeColor=none;fillColor=none;align=left;verticalAlign=top;spacingLeft=4;spacingRight=4;overflow=hidden;rotatable=0;points=[[0,0.5],[1,0.5]];portConstraint=eastwest;whiteSpace=wrap;html=1;" parent="N4vXA2fX9hWh01HENjKw-23" vertex="1">
          <mxGeometry y="112" width="160" height="30" as="geometry" />
        </mxCell>
        <mxCell id="N4vXA2fX9hWh01HENjKw-50" value="password" style="text;strokeColor=none;fillColor=none;align=left;verticalAlign=top;spacingLeft=4;spacingRight=4;overflow=hidden;rotatable=0;points=[[0,0.5],[1,0.5]];portConstraint=eastwest;whiteSpace=wrap;html=1;" parent="N4vXA2fX9hWh01HENjKw-23" vertex="1">
          <mxGeometry y="142" width="160" height="30" as="geometry" />
        </mxCell>
        <mxCell id="N4vXA2fX9hWh01HENjKw-49" value="availability&amp;nbsp;" style="text;strokeColor=none;fillColor=none;align=left;verticalAlign=top;spacingLeft=4;spacingRight=4;overflow=hidden;rotatable=0;points=[[0,0.5],[1,0.5]];portConstraint=eastwest;whiteSpace=wrap;html=1;" parent="N4vXA2fX9hWh01HENjKw-23" vertex="1">
          <mxGeometry y="172" width="160" height="30" as="geometry" />
        </mxCell>
        <mxCell id="N4vXA2fX9hWh01HENjKw-35" value="Administrative Staff" style="swimlane;fontStyle=1;align=center;verticalAlign=top;childLayout=stackLayout;horizontal=1;startSize=26;horizontalStack=0;resizeParent=1;resizeParentMax=0;resizeLast=0;collapsible=1;marginBottom=0;whiteSpace=wrap;html=1;" parent="1" vertex="1">
          <mxGeometry x="266" y="1122" width="160" height="162" as="geometry" />
        </mxCell>
        <mxCell id="N4vXA2fX9hWh01HENjKw-37" value="&lt;u&gt;StaffID&lt;/u&gt;" style="text;strokeColor=none;fillColor=none;align=left;verticalAlign=top;spacingLeft=4;spacingRight=4;overflow=hidden;rotatable=0;points=[[0,0.5],[1,0.5]];portConstraint=eastwest;whiteSpace=wrap;html=1;" parent="N4vXA2fX9hWh01HENjKw-35" vertex="1">
          <mxGeometry y="26" width="160" height="26" as="geometry" />
        </mxCell>
        <mxCell id="N4vXA2fX9hWh01HENjKw-38" value="Name&lt;br&gt;&lt;span style=&quot;white-space: pre;&quot;&gt;&#x9;&lt;/span&gt;FirstName&lt;br&gt;&lt;span style=&quot;white-space: pre;&quot;&gt;&#x9;&lt;/span&gt;LastName" style="text;strokeColor=none;fillColor=none;align=left;verticalAlign=top;spacingLeft=4;spacingRight=4;overflow=hidden;rotatable=0;points=[[0,0.5],[1,0.5]];portConstraint=eastwest;whiteSpace=wrap;html=1;" parent="N4vXA2fX9hWh01HENjKw-35" vertex="1">
          <mxGeometry y="52" width="160" height="60" as="geometry" />
        </mxCell>
        <mxCell id="N4vXA2fX9hWh01HENjKw-39" value="RegistrationInfo&lt;br&gt;&lt;span style=&quot;white-space: pre;&quot;&gt;&#x9;&lt;/span&gt;Email&lt;div&gt;&amp;nbsp; &amp;nbsp; &amp;nbsp; &amp;nbsp; password&lt;br&gt;&lt;div&gt;&lt;br&gt;&lt;/div&gt;&lt;/div&gt;" style="text;strokeColor=none;fillColor=none;align=left;verticalAlign=top;spacingLeft=4;spacingRight=4;overflow=hidden;rotatable=0;points=[[0,0.5],[1,0.5]];portConstraint=eastwest;whiteSpace=wrap;html=1;" parent="N4vXA2fX9hWh01HENjKw-35" vertex="1">
          <mxGeometry y="112" width="160" height="50" as="geometry" />
        </mxCell>
        <mxCell id="N4vXA2fX9hWh01HENjKw-40" value="Personalized Dashboard" style="swimlane;fontStyle=1;align=center;verticalAlign=top;childLayout=stackLayout;horizontal=1;startSize=26;horizontalStack=0;resizeParent=1;resizeParentMax=0;resizeLast=0;collapsible=1;marginBottom=0;whiteSpace=wrap;html=1;" parent="1" vertex="1">
          <mxGeometry x="1146" y="330" width="160" height="220" as="geometry" />
        </mxCell>
        <mxCell id="N4vXA2fX9hWh01HENjKw-42" value="&lt;u&gt;DashboardID&lt;/u&gt;" style="text;strokeColor=none;fillColor=none;align=left;verticalAlign=top;spacingLeft=4;spacingRight=4;overflow=hidden;rotatable=0;points=[[0,0.5],[1,0.5]];portConstraint=eastwest;whiteSpace=wrap;html=1;" parent="N4vXA2fX9hWh01HENjKw-40" vertex="1">
          <mxGeometry y="26" width="160" height="26" as="geometry" />
        </mxCell>
        <mxCell id="N4vXA2fX9hWh01HENjKw-44" value="FitnessAchievment()&lt;div&gt;&lt;br&gt;&lt;/div&gt;&lt;div&gt;FitnessGoals&lt;/div&gt;" style="text;strokeColor=none;fillColor=none;align=left;verticalAlign=top;spacingLeft=4;spacingRight=4;overflow=hidden;rotatable=0;points=[[0,0.5],[1,0.5]];portConstraint=eastwest;whiteSpace=wrap;html=1;" parent="N4vXA2fX9hWh01HENjKw-40" vertex="1">
          <mxGeometry y="52" width="160" height="50" as="geometry" />
        </mxCell>
        <mxCell id="N4vXA2fX9hWh01HENjKw-45" value="HealthStatistics()" style="text;strokeColor=none;fillColor=none;align=left;verticalAlign=top;spacingLeft=4;spacingRight=4;overflow=hidden;rotatable=0;points=[[0,0.5],[1,0.5]];portConstraint=eastwest;whiteSpace=wrap;html=1;" parent="N4vXA2fX9hWh01HENjKw-40" vertex="1">
          <mxGeometry y="102" width="160" height="30" as="geometry" />
        </mxCell>
        <mxCell id="N4vXA2fX9hWh01HENjKw-51" value="HealthMetrics&lt;div&gt;&lt;br&gt;&lt;div&gt;ExcerciseRoutines&lt;/div&gt;&lt;div&gt;&lt;br&gt;&lt;/div&gt;&lt;/div&gt;" style="text;strokeColor=none;fillColor=none;align=left;verticalAlign=top;spacingLeft=4;spacingRight=4;overflow=hidden;rotatable=0;points=[[0,0.5],[1,0.5]];portConstraint=eastwest;whiteSpace=wrap;html=1;" parent="N4vXA2fX9hWh01HENjKw-40" vertex="1">
          <mxGeometry y="132" width="160" height="58" as="geometry" />
        </mxCell>
        <mxCell id="N4vXA2fX9hWh01HENjKw-47" value="&lt;i style=&quot;&quot;&gt;MemberID&lt;/i&gt;" style="text;strokeColor=none;fillColor=none;align=left;verticalAlign=top;spacingLeft=4;spacingRight=4;overflow=hidden;rotatable=0;points=[[0,0.5],[1,0.5]];portConstraint=eastwest;whiteSpace=wrap;html=1;" parent="N4vXA2fX9hWh01HENjKw-40" vertex="1">
          <mxGeometry y="190" width="160" height="30" as="geometry" />
        </mxCell>
        <mxCell id="N4vXA2fX9hWh01HENjKw-52" value="Classes" style="swimlane;fontStyle=1;align=center;verticalAlign=top;childLayout=stackLayout;horizontal=1;startSize=26;horizontalStack=0;resizeParent=1;resizeParentMax=0;resizeLast=0;collapsible=1;marginBottom=0;whiteSpace=wrap;html=1;" parent="1" vertex="1">
          <mxGeometry x="266" y="800" width="160" height="202" as="geometry" />
        </mxCell>
        <mxCell id="N4vXA2fX9hWh01HENjKw-54" value="&lt;u&gt;ClassID&lt;/u&gt;" style="text;strokeColor=none;fillColor=none;align=left;verticalAlign=top;spacingLeft=4;spacingRight=4;overflow=hidden;rotatable=0;points=[[0,0.5],[1,0.5]];portConstraint=eastwest;whiteSpace=wrap;html=1;" parent="N4vXA2fX9hWh01HENjKw-52" vertex="1">
          <mxGeometry y="26" width="160" height="26" as="geometry" />
        </mxCell>
        <mxCell id="N4vXA2fX9hWh01HENjKw-56" value="Name" style="text;strokeColor=none;fillColor=none;align=left;verticalAlign=top;spacingLeft=4;spacingRight=4;overflow=hidden;rotatable=0;points=[[0,0.5],[1,0.5]];portConstraint=eastwest;whiteSpace=wrap;html=1;" parent="N4vXA2fX9hWh01HENjKw-52" vertex="1">
          <mxGeometry y="52" width="160" height="30" as="geometry" />
        </mxCell>
        <mxCell id="N4vXA2fX9hWh01HENjKw-57" value="Description" style="text;strokeColor=none;fillColor=none;align=left;verticalAlign=top;spacingLeft=4;spacingRight=4;overflow=hidden;rotatable=0;points=[[0,0.5],[1,0.5]];portConstraint=eastwest;whiteSpace=wrap;html=1;" parent="N4vXA2fX9hWh01HENjKw-52" vertex="1">
          <mxGeometry y="82" width="160" height="30" as="geometry" />
        </mxCell>
        <mxCell id="N4vXA2fX9hWh01HENjKw-58" value="&lt;font&gt;RoomID&lt;/font&gt;" style="text;strokeColor=none;fillColor=none;align=left;verticalAlign=top;spacingLeft=4;spacingRight=4;overflow=hidden;rotatable=0;points=[[0,0.5],[1,0.5]];portConstraint=eastwest;whiteSpace=wrap;html=1;fontStyle=2;fontColor=#000000;" parent="N4vXA2fX9hWh01HENjKw-52" vertex="1">
          <mxGeometry y="112" width="160" height="30" as="geometry" />
        </mxCell>
        <mxCell id="N4vXA2fX9hWh01HENjKw-94" value="&lt;font&gt;MemberID&lt;/font&gt;" style="text;strokeColor=none;fillColor=none;align=left;verticalAlign=top;spacingLeft=4;spacingRight=4;overflow=hidden;rotatable=0;points=[[0,0.5],[1,0.5]];portConstraint=eastwest;whiteSpace=wrap;html=1;fontStyle=2;fontColor=default;" parent="N4vXA2fX9hWh01HENjKw-52" vertex="1">
          <mxGeometry y="142" width="160" height="30" as="geometry" />
        </mxCell>
        <mxCell id="N4vXA2fX9hWh01HENjKw-93" value="&lt;font&gt;TrainerID&lt;/font&gt;" style="text;strokeColor=none;fillColor=none;align=left;verticalAlign=top;spacingLeft=4;spacingRight=4;overflow=hidden;rotatable=0;points=[[0,0.5],[1,0.5]];portConstraint=eastwest;whiteSpace=wrap;html=1;fontColor=default;fontStyle=2" parent="N4vXA2fX9hWh01HENjKw-52" vertex="1">
          <mxGeometry y="172" width="160" height="30" as="geometry" />
        </mxCell>
        <mxCell id="N4vXA2fX9hWh01HENjKw-59" value="Rooms" style="swimlane;fontStyle=1;align=center;verticalAlign=top;childLayout=stackLayout;horizontal=1;startSize=26;horizontalStack=0;resizeParent=1;resizeParentMax=0;resizeLast=0;collapsible=1;marginBottom=0;whiteSpace=wrap;html=1;" parent="1" vertex="1">
          <mxGeometry x="691" y="980" width="160" height="212" as="geometry" />
        </mxCell>
        <mxCell id="N4vXA2fX9hWh01HENjKw-61" value="&lt;u&gt;RoomID&lt;/u&gt;" style="text;strokeColor=none;fillColor=none;align=left;verticalAlign=top;spacingLeft=4;spacingRight=4;overflow=hidden;rotatable=0;points=[[0,0.5],[1,0.5]];portConstraint=eastwest;whiteSpace=wrap;html=1;" parent="N4vXA2fX9hWh01HENjKw-59" vertex="1">
          <mxGeometry y="26" width="160" height="26" as="geometry" />
        </mxCell>
        <mxCell id="N4vXA2fX9hWh01HENjKw-62" value="Name" style="text;strokeColor=none;fillColor=none;align=left;verticalAlign=top;spacingLeft=4;spacingRight=4;overflow=hidden;rotatable=0;points=[[0,0.5],[1,0.5]];portConstraint=eastwest;whiteSpace=wrap;html=1;" parent="N4vXA2fX9hWh01HENjKw-59" vertex="1">
          <mxGeometry y="52" width="160" height="30" as="geometry" />
        </mxCell>
        <mxCell id="N4vXA2fX9hWh01HENjKw-92" value="RoomType" style="text;strokeColor=none;fillColor=none;align=left;verticalAlign=top;spacingLeft=4;spacingRight=4;overflow=hidden;rotatable=0;points=[[0,0.5],[1,0.5]];portConstraint=eastwest;whiteSpace=wrap;html=1;" parent="N4vXA2fX9hWh01HENjKw-59" vertex="1">
          <mxGeometry y="82" width="160" height="30" as="geometry" />
        </mxCell>
        <mxCell id="N4vXA2fX9hWh01HENjKw-63" value="Availability" style="text;strokeColor=none;fillColor=none;align=left;verticalAlign=top;spacingLeft=4;spacingRight=4;overflow=hidden;rotatable=0;points=[[0,0.5],[1,0.5]];portConstraint=eastwest;whiteSpace=wrap;html=1;" parent="N4vXA2fX9hWh01HENjKw-59" vertex="1">
          <mxGeometry y="112" width="160" height="30" as="geometry" />
        </mxCell>
        <mxCell id="N4vXA2fX9hWh01HENjKw-91" value="&lt;i style=&quot;&quot;&gt;EquipmentID&lt;/i&gt;&lt;div&gt;&lt;i&gt;&lt;br&gt;&lt;/i&gt;&lt;/div&gt;&lt;div&gt;&lt;i style=&quot;&quot;&gt;StaffID&lt;/i&gt;&lt;/div&gt;" style="text;strokeColor=none;fillColor=none;align=left;verticalAlign=top;spacingLeft=4;spacingRight=4;overflow=hidden;rotatable=0;points=[[0,0.5],[1,0.5]];portConstraint=eastwest;whiteSpace=wrap;html=1;" parent="N4vXA2fX9hWh01HENjKw-59" vertex="1">
          <mxGeometry y="142" width="160" height="70" as="geometry" />
        </mxCell>
        <mxCell id="N4vXA2fX9hWh01HENjKw-65" value="Equipment" style="swimlane;fontStyle=1;align=center;verticalAlign=top;childLayout=stackLayout;horizontal=1;startSize=0;horizontalStack=0;resizeParent=1;resizeParentMax=0;resizeLast=0;collapsible=1;marginBottom=0;whiteSpace=wrap;html=1;" parent="1" vertex="1">
          <mxGeometry x="1086" y="1120" width="160" height="166" as="geometry" />
        </mxCell>
        <mxCell id="N4vXA2fX9hWh01HENjKw-66" value="" style="line;strokeWidth=1;fillColor=none;align=left;verticalAlign=middle;spacingTop=-1;spacingLeft=3;spacingRight=3;rotatable=0;labelPosition=right;points=[];portConstraint=eastwest;strokeColor=inherit;" parent="N4vXA2fX9hWh01HENjKw-65" vertex="1">
          <mxGeometry width="160" height="50" as="geometry" />
        </mxCell>
        <mxCell id="N4vXA2fX9hWh01HENjKw-67" value="&lt;u&gt;EquipmentID&lt;/u&gt;" style="text;strokeColor=none;fillColor=none;align=left;verticalAlign=top;spacingLeft=4;spacingRight=4;overflow=hidden;rotatable=0;points=[[0,0.5],[1,0.5]];portConstraint=eastwest;whiteSpace=wrap;html=1;" parent="N4vXA2fX9hWh01HENjKw-65" vertex="1">
          <mxGeometry y="50" width="160" height="26" as="geometry" />
        </mxCell>
        <mxCell id="N4vXA2fX9hWh01HENjKw-68" value="EquipmentType" style="text;strokeColor=none;fillColor=none;align=left;verticalAlign=top;spacingLeft=4;spacingRight=4;overflow=hidden;rotatable=0;points=[[0,0.5],[1,0.5]];portConstraint=eastwest;whiteSpace=wrap;html=1;" parent="N4vXA2fX9hWh01HENjKw-65" vertex="1">
          <mxGeometry y="76" width="160" height="30" as="geometry" />
        </mxCell>
        <mxCell id="N4vXA2fX9hWh01HENjKw-69" value="Description" style="text;strokeColor=none;fillColor=none;align=left;verticalAlign=top;spacingLeft=4;spacingRight=4;overflow=hidden;rotatable=0;points=[[0,0.5],[1,0.5]];portConstraint=eastwest;whiteSpace=wrap;html=1;" parent="N4vXA2fX9hWh01HENjKw-65" vertex="1">
          <mxGeometry y="106" width="160" height="30" as="geometry" />
        </mxCell>
        <mxCell id="N4vXA2fX9hWh01HENjKw-70" value="&lt;i&gt;StaffID&lt;/i&gt;" style="text;strokeColor=none;fillColor=none;align=left;verticalAlign=top;spacingLeft=4;spacingRight=4;overflow=hidden;rotatable=0;points=[[0,0.5],[1,0.5]];portConstraint=eastwest;whiteSpace=wrap;html=1;" parent="N4vXA2fX9hWh01HENjKw-65" vertex="1">
          <mxGeometry y="136" width="160" height="30" as="geometry" />
        </mxCell>
        <mxCell id="N4vXA2fX9hWh01HENjKw-71" value="Bills" style="swimlane;fontStyle=1;align=center;verticalAlign=top;childLayout=stackLayout;horizontal=1;startSize=26;horizontalStack=0;resizeParent=1;resizeParentMax=0;resizeLast=0;collapsible=1;marginBottom=0;whiteSpace=wrap;html=1;" parent="1" vertex="1">
          <mxGeometry x="516" y="1350" width="160" height="202" as="geometry" />
        </mxCell>
        <mxCell id="N4vXA2fX9hWh01HENjKw-73" value="&lt;u&gt;TransactionID&lt;/u&gt;" style="text;strokeColor=none;fillColor=none;align=left;verticalAlign=top;spacingLeft=4;spacingRight=4;overflow=hidden;rotatable=0;points=[[0,0.5],[1,0.5]];portConstraint=eastwest;whiteSpace=wrap;html=1;" parent="N4vXA2fX9hWh01HENjKw-71" vertex="1">
          <mxGeometry y="26" width="160" height="26" as="geometry" />
        </mxCell>
        <mxCell id="N4vXA2fX9hWh01HENjKw-74" value="Amount" style="text;strokeColor=none;fillColor=none;align=left;verticalAlign=top;spacingLeft=4;spacingRight=4;overflow=hidden;rotatable=0;points=[[0,0.5],[1,0.5]];portConstraint=eastwest;whiteSpace=wrap;html=1;" parent="N4vXA2fX9hWh01HENjKw-71" vertex="1">
          <mxGeometry y="52" width="160" height="30" as="geometry" />
        </mxCell>
        <mxCell id="N4vXA2fX9hWh01HENjKw-75" value="Date" style="text;strokeColor=none;fillColor=none;align=left;verticalAlign=top;spacingLeft=4;spacingRight=4;overflow=hidden;rotatable=0;points=[[0,0.5],[1,0.5]];portConstraint=eastwest;whiteSpace=wrap;html=1;" parent="N4vXA2fX9hWh01HENjKw-71" vertex="1">
          <mxGeometry y="82" width="160" height="30" as="geometry" />
        </mxCell>
        <mxCell id="N4vXA2fX9hWh01HENjKw-76" value="PaymentMethod" style="text;strokeColor=none;fillColor=none;align=left;verticalAlign=top;spacingLeft=4;spacingRight=4;overflow=hidden;rotatable=0;points=[[0,0.5],[1,0.5]];portConstraint=eastwest;whiteSpace=wrap;html=1;" parent="N4vXA2fX9hWh01HENjKw-71" vertex="1">
          <mxGeometry y="112" width="160" height="30" as="geometry" />
        </mxCell>
        <mxCell id="N4vXA2fX9hWh01HENjKw-77" value="Service&lt;br&gt;" style="text;strokeColor=none;fillColor=none;align=left;verticalAlign=top;spacingLeft=4;spacingRight=4;overflow=hidden;rotatable=0;points=[[0,0.5],[1,0.5]];portConstraint=eastwest;whiteSpace=wrap;html=1;" parent="N4vXA2fX9hWh01HENjKw-71" vertex="1">
          <mxGeometry y="142" width="160" height="30" as="geometry" />
        </mxCell>
        <mxCell id="N4vXA2fX9hWh01HENjKw-78" value="&lt;i&gt;MemberID&lt;/i&gt;" style="text;strokeColor=none;fillColor=none;align=left;verticalAlign=top;spacingLeft=4;spacingRight=4;overflow=hidden;rotatable=0;points=[[0,0.5],[1,0.5]];portConstraint=eastwest;whiteSpace=wrap;html=1;" parent="N4vXA2fX9hWh01HENjKw-71" vertex="1">
          <mxGeometry y="172" width="160" height="30" as="geometry" />
        </mxCell>
        <mxCell id="N4vXA2fX9hWh01HENjKw-79" value="PersonalTrainingSession" style="swimlane;fontStyle=1;align=center;verticalAlign=top;childLayout=stackLayout;horizontal=1;startSize=26;horizontalStack=0;resizeParent=1;resizeParentMax=0;resizeLast=0;collapsible=1;marginBottom=0;whiteSpace=wrap;html=1;" parent="1" vertex="1">
          <mxGeometry x="1146" y="600" width="160" height="202" as="geometry" />
        </mxCell>
        <mxCell id="N4vXA2fX9hWh01HENjKw-81" value="&lt;u&gt;SessionID&lt;/u&gt;" style="text;strokeColor=none;fillColor=none;align=left;verticalAlign=top;spacingLeft=4;spacingRight=4;overflow=hidden;rotatable=0;points=[[0,0.5],[1,0.5]];portConstraint=eastwest;whiteSpace=wrap;html=1;" parent="N4vXA2fX9hWh01HENjKw-79" vertex="1">
          <mxGeometry y="26" width="160" height="26" as="geometry" />
        </mxCell>
        <mxCell id="N4vXA2fX9hWh01HENjKw-82" value="SessionSchedule&lt;br&gt;&lt;span style=&quot;white-space: pre;&quot;&gt;&#x9;&lt;/span&gt;Date&lt;br&gt;&lt;span style=&quot;white-space: pre;&quot;&gt;&#x9;&lt;/span&gt;Time" style="text;strokeColor=none;fillColor=none;align=left;verticalAlign=top;spacingLeft=4;spacingRight=4;overflow=hidden;rotatable=0;points=[[0,0.5],[1,0.5]];portConstraint=eastwest;whiteSpace=wrap;html=1;" parent="N4vXA2fX9hWh01HENjKw-79" vertex="1">
          <mxGeometry y="52" width="160" height="60" as="geometry" />
        </mxCell>
        <mxCell id="N4vXA2fX9hWh01HENjKw-85" value="Duration" style="text;strokeColor=none;fillColor=none;align=left;verticalAlign=top;spacingLeft=4;spacingRight=4;overflow=hidden;rotatable=0;points=[[0,0.5],[1,0.5]];portConstraint=eastwest;whiteSpace=wrap;html=1;" parent="N4vXA2fX9hWh01HENjKw-79" vertex="1">
          <mxGeometry y="112" width="160" height="30" as="geometry" />
        </mxCell>
        <mxCell id="N4vXA2fX9hWh01HENjKw-86" value="&lt;font&gt;MemberID&lt;/font&gt;" style="text;strokeColor=none;fillColor=none;align=left;verticalAlign=top;spacingLeft=4;spacingRight=4;overflow=hidden;rotatable=0;points=[[0,0.5],[1,0.5]];portConstraint=eastwest;whiteSpace=wrap;html=1;fontColor=#000000;fontStyle=2" parent="N4vXA2fX9hWh01HENjKw-79" vertex="1">
          <mxGeometry y="142" width="160" height="30" as="geometry" />
        </mxCell>
        <mxCell id="N4vXA2fX9hWh01HENjKw-87" value="&lt;font&gt;TrainerID&lt;/font&gt;" style="text;strokeColor=none;fillColor=none;align=left;verticalAlign=top;spacingLeft=4;spacingRight=4;overflow=hidden;rotatable=0;points=[[0,0.5],[1,0.5]];portConstraint=eastwest;whiteSpace=wrap;html=1;fontStyle=2;fontColor=#000000;" parent="N4vXA2fX9hWh01HENjKw-79" vertex="1">
          <mxGeometry y="172" width="160" height="30" as="geometry" />
        </mxCell>
        <mxCell id="N4vXA2fX9hWh01HENjKw-95" value="" style="endArrow=none;dashed=1;html=1;rounded=0;entryX=0;entryY=0.5;entryDx=0;entryDy=0;exitX=0.5;exitY=0;exitDx=0;exitDy=0;" parent="1" source="N4vXA2fX9hWh01HENjKw-23" target="N4vXA2fX9hWh01HENjKw-96" edge="1">
          <mxGeometry width="50" height="50" relative="1" as="geometry">
            <mxPoint x="446" y="350" as="sourcePoint" />
            <mxPoint x="506" y="670" as="targetPoint" />
            <Array as="points">
              <mxPoint x="376" y="250" />
            </Array>
          </mxGeometry>
        </mxCell>
        <mxCell id="ZUEVyyYSkHnO5qGNUlor-4" value="1" style="edgeLabel;html=1;align=center;verticalAlign=middle;resizable=0;points=[];" parent="N4vXA2fX9hWh01HENjKw-95" vertex="1" connectable="0">
          <mxGeometry x="-0.9279" y="-2" relative="1" as="geometry">
            <mxPoint y="1" as="offset" />
          </mxGeometry>
        </mxCell>
        <mxCell id="N4vXA2fX9hWh01HENjKw-96" value="Trains" style="rhombus;whiteSpace=wrap;html=1;" parent="1" vertex="1">
          <mxGeometry x="1286" y="210" width="80" height="80" as="geometry" />
        </mxCell>
        <mxCell id="N4vXA2fX9hWh01HENjKw-98" value="" style="endArrow=none;html=1;rounded=0;exitX=1;exitY=0.5;exitDx=0;exitDy=0;" parent="1" source="N4vXA2fX9hWh01HENjKw-96" edge="1">
          <mxGeometry width="50" height="50" relative="1" as="geometry">
            <mxPoint x="776" y="760" as="sourcePoint" />
            <mxPoint x="1306" y="740" as="targetPoint" />
            <Array as="points">
              <mxPoint x="1366" y="740" />
            </Array>
          </mxGeometry>
        </mxCell>
        <mxCell id="nP1ccU8nvRN3IM5yhHQb-1" value="n" style="edgeLabel;html=1;align=center;verticalAlign=middle;resizable=0;points=[];" parent="N4vXA2fX9hWh01HENjKw-98" vertex="1" connectable="0">
          <mxGeometry x="0.643" y="4" relative="1" as="geometry">
            <mxPoint as="offset" />
          </mxGeometry>
        </mxCell>
        <mxCell id="N4vXA2fX9hWh01HENjKw-100" value="" style="endArrow=none;dashed=1;html=1;rounded=0;entryX=0;entryY=0.5;entryDx=0;entryDy=0;exitX=1.001;exitY=1.034;exitDx=0;exitDy=0;exitPerimeter=0;" parent="1" source="N4vXA2fX9hWh01HENjKw-18" target="N4vXA2fX9hWh01HENjKw-101" edge="1">
          <mxGeometry width="50" height="50" relative="1" as="geometry">
            <mxPoint x="790.24" y="578.1300000000001" as="sourcePoint" />
            <mxPoint x="906" y="670" as="targetPoint" />
          </mxGeometry>
        </mxCell>
        <mxCell id="ZUEVyyYSkHnO5qGNUlor-13" value="&lt;font style=&quot;font-size: 14px;&quot;&gt;1&lt;/font&gt;" style="edgeLabel;html=1;align=center;verticalAlign=middle;resizable=0;points=[];" parent="N4vXA2fX9hWh01HENjKw-100" vertex="1" connectable="0">
          <mxGeometry x="-0.5314" y="2" relative="1" as="geometry">
            <mxPoint x="1" as="offset" />
          </mxGeometry>
        </mxCell>
        <mxCell id="N4vXA2fX9hWh01HENjKw-101" value="Takes" style="rhombus;whiteSpace=wrap;html=1;" parent="1" vertex="1">
          <mxGeometry x="906" y="630" width="80" height="82" as="geometry" />
        </mxCell>
        <mxCell id="N4vXA2fX9hWh01HENjKw-102" value="" style="endArrow=none;html=1;rounded=0;exitX=1;exitY=0.5;exitDx=0;exitDy=0;entryX=0;entryY=0.5;entryDx=0;entryDy=0;" parent="1" source="N4vXA2fX9hWh01HENjKw-101" target="N4vXA2fX9hWh01HENjKw-82" edge="1">
          <mxGeometry width="50" height="50" relative="1" as="geometry">
            <mxPoint x="996" y="680" as="sourcePoint" />
            <mxPoint x="1106" y="690" as="targetPoint" />
          </mxGeometry>
        </mxCell>
        <mxCell id="N4vXA2fX9hWh01HENjKw-105" value="1" style="text;html=1;align=center;verticalAlign=middle;resizable=0;points=[];autosize=1;strokeColor=none;fillColor=none;" parent="1" vertex="1">
          <mxGeometry x="1116" y="660" width="30" height="30" as="geometry" />
        </mxCell>
        <mxCell id="N4vXA2fX9hWh01HENjKw-112" value="" style="endArrow=none;dashed=1;html=1;rounded=0;exitX=0;exitY=0.5;exitDx=0;exitDy=0;" parent="1" source="N4vXA2fX9hWh01HENjKw-18" target="N4vXA2fX9hWh01HENjKw-113" edge="1">
          <mxGeometry width="50" height="50" relative="1" as="geometry">
            <mxPoint x="636" y="640" as="sourcePoint" />
            <mxPoint x="636" y="630" as="targetPoint" />
          </mxGeometry>
        </mxCell>
        <mxCell id="ZUEVyyYSkHnO5qGNUlor-14" value="&lt;font style=&quot;font-size: 14px;&quot;&gt;n&lt;/font&gt;" style="edgeLabel;html=1;align=center;verticalAlign=middle;resizable=0;points=[];" parent="N4vXA2fX9hWh01HENjKw-112" vertex="1" connectable="0">
          <mxGeometry x="-0.5527" y="2" relative="1" as="geometry">
            <mxPoint x="-1" as="offset" />
          </mxGeometry>
        </mxCell>
        <mxCell id="N4vXA2fX9hWh01HENjKw-113" value="Subscribe" style="rhombus;whiteSpace=wrap;html=1;" parent="1" vertex="1">
          <mxGeometry x="476" y="710" width="80" height="80" as="geometry" />
        </mxCell>
        <mxCell id="N4vXA2fX9hWh01HENjKw-115" value="" style="endArrow=none;html=1;rounded=0;exitX=1;exitY=0.5;exitDx=0;exitDy=0;entryX=0.5;entryY=1;entryDx=0;entryDy=0;" parent="1" target="N4vXA2fX9hWh01HENjKw-113" edge="1">
          <mxGeometry width="50" height="50" relative="1" as="geometry">
            <mxPoint x="426" y="895.5" as="sourcePoint" />
            <mxPoint x="586" y="914.5" as="targetPoint" />
          </mxGeometry>
        </mxCell>
        <mxCell id="N4vXA2fX9hWh01HENjKw-117" value="m" style="text;html=1;align=center;verticalAlign=middle;resizable=0;points=[];autosize=1;strokeColor=none;fillColor=none;" parent="1" vertex="1">
          <mxGeometry x="421" y="850" width="30" height="30" as="geometry" />
        </mxCell>
        <mxCell id="N4vXA2fX9hWh01HENjKw-119" value="Gives" style="rhombus;whiteSpace=wrap;html=1;" parent="1" vertex="1">
          <mxGeometry x="296" y="670" width="80" height="80" as="geometry" />
        </mxCell>
        <mxCell id="N4vXA2fX9hWh01HENjKw-122" value="" style="endArrow=none;dashed=1;html=1;rounded=0;exitX=0.469;exitY=1.047;exitDx=0;exitDy=0;exitPerimeter=0;entryX=0.5;entryY=0;entryDx=0;entryDy=0;" parent="1" source="N4vXA2fX9hWh01HENjKw-49" target="N4vXA2fX9hWh01HENjKw-119" edge="1">
          <mxGeometry width="50" height="50" relative="1" as="geometry">
            <mxPoint x="355.78999999999996" y="749" as="sourcePoint" />
            <mxPoint x="356" y="820" as="targetPoint" />
          </mxGeometry>
        </mxCell>
        <mxCell id="N4vXA2fX9hWh01HENjKw-125" value="1" style="text;html=1;align=center;verticalAlign=middle;resizable=0;points=[];autosize=1;strokeColor=none;fillColor=none;" parent="1" vertex="1">
          <mxGeometry x="331" y="600" width="30" height="30" as="geometry" />
        </mxCell>
        <mxCell id="N4vXA2fX9hWh01HENjKw-127" value="n" style="text;html=1;align=center;verticalAlign=middle;resizable=0;points=[];autosize=1;strokeColor=none;fillColor=none;" parent="1" vertex="1">
          <mxGeometry x="331" y="770" width="30" height="30" as="geometry" />
        </mxCell>
        <mxCell id="N4vXA2fX9hWh01HENjKw-128" value="" style="endArrow=none;html=1;rounded=0;exitX=1;exitY=0.5;exitDx=0;exitDy=0;" parent="1" edge="1">
          <mxGeometry width="50" height="50" relative="1" as="geometry">
            <mxPoint x="335.28999999999996" y="797.75" as="sourcePoint" />
            <mxPoint x="335.28999999999996" y="750" as="targetPoint" />
          </mxGeometry>
        </mxCell>
        <mxCell id="N4vXA2fX9hWh01HENjKw-129" value="" style="endArrow=none;html=1;rounded=0;exitX=0.156;exitY=0.784;exitDx=0;exitDy=0;exitPerimeter=0;" parent="1" source="N4vXA2fX9hWh01HENjKw-133" edge="1">
          <mxGeometry width="50" height="50" relative="1" as="geometry">
            <mxPoint x="426" y="1010" as="sourcePoint" />
            <mxPoint x="506" y="1030" as="targetPoint" />
          </mxGeometry>
        </mxCell>
        <mxCell id="N4vXA2fX9hWh01HENjKw-130" value="Given In" style="rhombus;whiteSpace=wrap;html=1;" parent="1" vertex="1">
          <mxGeometry x="506" y="990" width="80" height="80" as="geometry" />
        </mxCell>
        <mxCell id="N4vXA2fX9hWh01HENjKw-132" value="" style="endArrow=none;dashed=1;html=1;rounded=0;exitX=-0.018;exitY=-0.38;exitDx=0;exitDy=0;exitPerimeter=0;entryX=1;entryY=0.5;entryDx=0;entryDy=0;" parent="1" source="N4vXA2fX9hWh01HENjKw-61" target="N4vXA2fX9hWh01HENjKw-130" edge="1">
          <mxGeometry width="50" height="50" relative="1" as="geometry">
            <mxPoint x="656" y="1152" as="sourcePoint" />
            <mxPoint x="596" y="1142" as="targetPoint" />
          </mxGeometry>
        </mxCell>
        <mxCell id="ZUEVyyYSkHnO5qGNUlor-18" value="&lt;font style=&quot;font-size: 14px;&quot;&gt;1&lt;/font&gt;" style="edgeLabel;html=1;align=center;verticalAlign=middle;resizable=0;points=[];" parent="N4vXA2fX9hWh01HENjKw-132" vertex="1" connectable="0">
          <mxGeometry x="-0.3241" y="-2" relative="1" as="geometry">
            <mxPoint as="offset" />
          </mxGeometry>
        </mxCell>
        <mxCell id="N4vXA2fX9hWh01HENjKw-133" value="n" style="text;html=1;align=center;verticalAlign=middle;resizable=0;points=[];autosize=1;strokeColor=none;fillColor=none;" parent="1" vertex="1">
          <mxGeometry x="421" y="978" width="30" height="30" as="geometry" />
        </mxCell>
        <mxCell id="N4vXA2fX9hWh01HENjKw-135" value="Taken In" style="rhombus;whiteSpace=wrap;html=1;" parent="1" vertex="1">
          <mxGeometry x="956" y="840" width="80" height="80" as="geometry" />
        </mxCell>
        <mxCell id="N4vXA2fX9hWh01HENjKw-136" value="" style="endArrow=none;dashed=1;html=1;rounded=0;exitX=1;exitY=0.5;exitDx=0;exitDy=0;entryX=0.5;entryY=1;entryDx=0;entryDy=0;" parent="1" source="N4vXA2fX9hWh01HENjKw-61" target="N4vXA2fX9hWh01HENjKw-135" edge="1">
          <mxGeometry width="50" height="50" relative="1" as="geometry">
            <mxPoint x="836" y="1140" as="sourcePoint" />
            <mxPoint x="764" y="1128" as="targetPoint" />
          </mxGeometry>
        </mxCell>
        <mxCell id="kRjih3Sgi1PEuBWdEO9F-20" value="&lt;font style=&quot;font-size: 14px;&quot;&gt;1&lt;/font&gt;" style="edgeLabel;html=1;align=center;verticalAlign=middle;resizable=0;points=[];" parent="N4vXA2fX9hWh01HENjKw-136" vertex="1" connectable="0">
          <mxGeometry x="-0.4996" y="4" relative="1" as="geometry">
            <mxPoint as="offset" />
          </mxGeometry>
        </mxCell>
        <mxCell id="N4vXA2fX9hWh01HENjKw-137" value="" style="endArrow=none;html=1;rounded=0;entryX=0;entryY=0.5;entryDx=0;entryDy=0;exitX=1;exitY=0.5;exitDx=0;exitDy=0;" parent="1" source="N4vXA2fX9hWh01HENjKw-135" target="N4vXA2fX9hWh01HENjKw-87" edge="1">
          <mxGeometry width="50" height="50" relative="1" as="geometry">
            <mxPoint x="1346" y="1360" as="sourcePoint" />
            <mxPoint x="976" y="920" as="targetPoint" />
            <Array as="points" />
          </mxGeometry>
        </mxCell>
        <mxCell id="kRjih3Sgi1PEuBWdEO9F-12" value="n" style="edgeLabel;html=1;align=center;verticalAlign=middle;resizable=0;points=[];" parent="N4vXA2fX9hWh01HENjKw-137" vertex="1" connectable="0">
          <mxGeometry x="0.5147" y="-1" relative="1" as="geometry">
            <mxPoint as="offset" />
          </mxGeometry>
        </mxCell>
        <mxCell id="N4vXA2fX9hWh01HENjKw-146" value="Pays&amp;nbsp;&amp;nbsp;" style="rhombus;whiteSpace=wrap;html=1;" parent="1" vertex="1">
          <mxGeometry x="596" y="745" width="80" height="80" as="geometry" />
        </mxCell>
        <mxCell id="N4vXA2fX9hWh01HENjKw-148" value="" style="endArrow=none;html=1;rounded=0;entryX=0.5;entryY=1;entryDx=0;entryDy=0;exitX=0.5;exitY=0;exitDx=0;exitDy=0;" parent="1" source="N4vXA2fX9hWh01HENjKw-71" target="N4vXA2fX9hWh01HENjKw-146" edge="1">
          <mxGeometry width="50" height="50" relative="1" as="geometry">
            <mxPoint x="596" y="925" as="sourcePoint" />
            <mxPoint x="646" y="885" as="targetPoint" />
          </mxGeometry>
        </mxCell>
        <mxCell id="kRjih3Sgi1PEuBWdEO9F-8" value="n" style="edgeLabel;html=1;align=center;verticalAlign=middle;resizable=0;points=[];" parent="N4vXA2fX9hWh01HENjKw-148" vertex="1" connectable="0">
          <mxGeometry x="-0.8384" y="-1" relative="1" as="geometry">
            <mxPoint as="offset" />
          </mxGeometry>
        </mxCell>
        <mxCell id="N4vXA2fX9hWh01HENjKw-151" value="Monitors" style="rhombus;whiteSpace=wrap;html=1;" parent="1" vertex="1">
          <mxGeometry x="716" y="1242" width="80" height="80" as="geometry" />
        </mxCell>
        <mxCell id="N4vXA2fX9hWh01HENjKw-152" value="" style="endArrow=none;dashed=1;html=1;rounded=0;exitX=0;exitY=0.5;exitDx=0;exitDy=0;entryX=1;entryY=0.5;entryDx=0;entryDy=0;" parent="1" source="N4vXA2fX9hWh01HENjKw-151" target="N4vXA2fX9hWh01HENjKw-39" edge="1">
          <mxGeometry width="50" height="50" relative="1" as="geometry">
            <mxPoint x="691" y="820" as="sourcePoint" />
            <mxPoint x="446" y="1296.2931315104165" as="targetPoint" />
          </mxGeometry>
        </mxCell>
        <mxCell id="ZUEVyyYSkHnO5qGNUlor-12" value="&lt;font style=&quot;font-size: 14px;&quot;&gt;1&lt;/font&gt;" style="edgeLabel;html=1;align=center;verticalAlign=middle;resizable=0;points=[];" parent="N4vXA2fX9hWh01HENjKw-152" vertex="1" connectable="0">
          <mxGeometry x="0.7793" y="-3" relative="1" as="geometry">
            <mxPoint x="-1" as="offset" />
          </mxGeometry>
        </mxCell>
        <mxCell id="N4vXA2fX9hWh01HENjKw-153" value="" style="endArrow=none;html=1;rounded=0;entryX=1;entryY=0.5;entryDx=0;entryDy=0;exitX=0;exitY=0.5;exitDx=0;exitDy=0;" parent="1" source="N4vXA2fX9hWh01HENjKw-70" target="N4vXA2fX9hWh01HENjKw-151" edge="1">
          <mxGeometry width="50" height="50" relative="1" as="geometry">
            <mxPoint x="746" y="1150" as="sourcePoint" />
            <mxPoint x="746" y="1030" as="targetPoint" />
          </mxGeometry>
        </mxCell>
        <mxCell id="ZUEVyyYSkHnO5qGNUlor-20" value="&lt;font style=&quot;font-size: 14px;&quot;&gt;n&lt;/font&gt;" style="edgeLabel;html=1;align=center;verticalAlign=middle;resizable=0;points=[];" parent="N4vXA2fX9hWh01HENjKw-153" vertex="1" connectable="0">
          <mxGeometry x="-0.5554" y="1" relative="1" as="geometry">
            <mxPoint as="offset" />
          </mxGeometry>
        </mxCell>
        <mxCell id="N4vXA2fX9hWh01HENjKw-156" value="Has" style="rhombus;whiteSpace=wrap;html=1;" parent="1" vertex="1">
          <mxGeometry x="911" y="382" width="80" height="80" as="geometry" />
        </mxCell>
        <mxCell id="N4vXA2fX9hWh01HENjKw-158" value="" style="endArrow=none;html=1;rounded=0;exitX=1.007;exitY=0.377;exitDx=0;exitDy=0;exitPerimeter=0;entryX=0;entryY=0.5;entryDx=0;entryDy=0;" parent="1" source="N4vXA2fX9hWh01HENjKw-16" target="N4vXA2fX9hWh01HENjKw-156" edge="1">
          <mxGeometry width="50" height="50" relative="1" as="geometry">
            <mxPoint x="826" y="470" as="sourcePoint" />
            <mxPoint x="876" y="420" as="targetPoint" />
          </mxGeometry>
        </mxCell>
        <mxCell id="ZUEVyyYSkHnO5qGNUlor-16" value="&lt;font style=&quot;font-size: 14px;&quot;&gt;1&lt;/font&gt;" style="edgeLabel;html=1;align=center;verticalAlign=middle;resizable=0;points=[];" parent="N4vXA2fX9hWh01HENjKw-158" vertex="1" connectable="0">
          <mxGeometry x="-0.6351" relative="1" as="geometry">
            <mxPoint as="offset" />
          </mxGeometry>
        </mxCell>
        <mxCell id="N4vXA2fX9hWh01HENjKw-159" value="" style="endArrow=none;html=1;rounded=0;exitX=1;exitY=0.5;exitDx=0;exitDy=0;entryX=0;entryY=0.5;entryDx=0;entryDy=0;" parent="1" source="N4vXA2fX9hWh01HENjKw-156" target="N4vXA2fX9hWh01HENjKw-44" edge="1">
          <mxGeometry width="50" height="50" relative="1" as="geometry">
            <mxPoint x="1046" y="480" as="sourcePoint" />
            <mxPoint x="1096" y="430" as="targetPoint" />
          </mxGeometry>
        </mxCell>
        <mxCell id="N4vXA2fX9hWh01HENjKw-161" value="1" style="text;html=1;align=center;verticalAlign=middle;resizable=0;points=[];autosize=1;strokeColor=none;fillColor=none;" parent="1" vertex="1">
          <mxGeometry x="1111" y="408" width="30" height="30" as="geometry" />
        </mxCell>
        <mxCell id="N4vXA2fX9hWh01HENjKw-162" value="Is in" style="rhombus;whiteSpace=wrap;html=1;" parent="1" vertex="1">
          <mxGeometry x="926" y="980" width="80" height="80" as="geometry" />
        </mxCell>
        <mxCell id="N4vXA2fX9hWh01HENjKw-166" value="" style="endArrow=none;html=1;rounded=0;entryX=0.25;entryY=0;entryDx=0;entryDy=0;exitX=1;exitY=0.5;exitDx=0;exitDy=0;" parent="1" source="N4vXA2fX9hWh01HENjKw-162" target="N4vXA2fX9hWh01HENjKw-65" edge="1">
          <mxGeometry width="50" height="50" relative="1" as="geometry">
            <mxPoint x="1016" y="1245" as="sourcePoint" />
            <mxPoint x="1066" y="1195" as="targetPoint" />
          </mxGeometry>
        </mxCell>
        <mxCell id="N4vXA2fX9hWh01HENjKw-167" value="" style="endArrow=none;dashed=1;html=1;rounded=0;entryX=0;entryY=0.5;entryDx=0;entryDy=0;exitX=1;exitY=0.5;exitDx=0;exitDy=0;" parent="1" source="N4vXA2fX9hWh01HENjKw-62" target="N4vXA2fX9hWh01HENjKw-162" edge="1">
          <mxGeometry width="50" height="50" relative="1" as="geometry">
            <mxPoint x="856.5999999999999" y="1226.8899999999999" as="sourcePoint" />
            <mxPoint x="916" y="1230" as="targetPoint" />
          </mxGeometry>
        </mxCell>
        <mxCell id="ZUEVyyYSkHnO5qGNUlor-7" value="Book&amp;nbsp;" style="rhombus;whiteSpace=wrap;html=1;" parent="1" vertex="1">
          <mxGeometry x="486" y="1110" width="80" height="80" as="geometry" />
        </mxCell>
        <mxCell id="ZUEVyyYSkHnO5qGNUlor-26" value="Issues a" style="rhombus;whiteSpace=wrap;html=1;" parent="1" vertex="1">
          <mxGeometry x="346" y="1370" width="80" height="80" as="geometry" />
        </mxCell>
        <mxCell id="ZUEVyyYSkHnO5qGNUlor-27" value="" style="endArrow=none;dashed=1;html=1;rounded=0;exitX=0.5;exitY=0;exitDx=0;exitDy=0;entryX=0.349;entryY=1.224;entryDx=0;entryDy=0;entryPerimeter=0;" parent="1" source="ZUEVyyYSkHnO5qGNUlor-26" target="N4vXA2fX9hWh01HENjKw-39" edge="1">
          <mxGeometry width="50" height="50" relative="1" as="geometry">
            <mxPoint x="576" y="1385" as="sourcePoint" />
            <mxPoint x="286" y="1370" as="targetPoint" />
          </mxGeometry>
        </mxCell>
        <mxCell id="ZUEVyyYSkHnO5qGNUlor-28" value="&lt;font style=&quot;font-size: 14px;&quot;&gt;1&lt;/font&gt;" style="edgeLabel;html=1;align=center;verticalAlign=middle;resizable=0;points=[];" parent="ZUEVyyYSkHnO5qGNUlor-27" vertex="1" connectable="0">
          <mxGeometry x="0.7793" y="-3" relative="1" as="geometry">
            <mxPoint x="-1" as="offset" />
          </mxGeometry>
        </mxCell>
        <mxCell id="ZUEVyyYSkHnO5qGNUlor-31" value="Views" style="rhombus;whiteSpace=wrap;html=1;" parent="1" vertex="1">
          <mxGeometry x="496" y="394" width="80" height="80" as="geometry" />
        </mxCell>
        <mxCell id="ZUEVyyYSkHnO5qGNUlor-32" value="" style="endArrow=none;dashed=1;html=1;rounded=0;exitX=0;exitY=0.5;exitDx=0;exitDy=0;entryX=0.998;entryY=0.652;entryDx=0;entryDy=0;entryPerimeter=0;" parent="1" source="ZUEVyyYSkHnO5qGNUlor-31" target="N4vXA2fX9hWh01HENjKw-26" edge="1">
          <mxGeometry width="50" height="50" relative="1" as="geometry">
            <mxPoint x="538.5" y="388.5" as="sourcePoint" />
            <mxPoint x="493.5" y="505.5" as="targetPoint" />
          </mxGeometry>
        </mxCell>
        <mxCell id="kRjih3Sgi1PEuBWdEO9F-6" value="n" style="edgeLabel;html=1;align=center;verticalAlign=middle;resizable=0;points=[];" parent="ZUEVyyYSkHnO5qGNUlor-32" vertex="1" connectable="0">
          <mxGeometry x="0.4219" y="-2" relative="1" as="geometry">
            <mxPoint x="1" as="offset" />
          </mxGeometry>
        </mxCell>
        <mxCell id="ZUEVyyYSkHnO5qGNUlor-33" value="" style="endArrow=none;dashed=1;html=1;rounded=0;exitX=0;exitY=0.5;exitDx=0;exitDy=0;entryX=1;entryY=0.5;entryDx=0;entryDy=0;" parent="1" source="N4vXA2fX9hWh01HENjKw-16" target="ZUEVyyYSkHnO5qGNUlor-31" edge="1">
          <mxGeometry width="50" height="50" relative="1" as="geometry">
            <mxPoint x="646" y="438" as="sourcePoint" />
            <mxPoint x="596" y="439" as="targetPoint" />
          </mxGeometry>
        </mxCell>
        <mxCell id="kRjih3Sgi1PEuBWdEO9F-7" value="m" style="edgeLabel;html=1;align=center;verticalAlign=middle;resizable=0;points=[];" parent="ZUEVyyYSkHnO5qGNUlor-33" vertex="1" connectable="0">
          <mxGeometry x="-0.0482" y="2" relative="1" as="geometry">
            <mxPoint x="-1" y="-1" as="offset" />
          </mxGeometry>
        </mxCell>
        <mxCell id="kRjih3Sgi1PEuBWdEO9F-9" value="" style="endArrow=none;html=1;rounded=0;entryX=0.292;entryY=1.023;entryDx=0;entryDy=0;entryPerimeter=0;exitX=0.5;exitY=0;exitDx=0;exitDy=0;fontSize=14;" parent="1" source="N4vXA2fX9hWh01HENjKw-146" target="N4vXA2fX9hWh01HENjKw-18" edge="1">
          <mxGeometry width="50" height="50" relative="1" as="geometry">
            <mxPoint x="646" y="700" as="sourcePoint" />
            <mxPoint x="696" y="650" as="targetPoint" />
          </mxGeometry>
        </mxCell>
        <mxCell id="kRjih3Sgi1PEuBWdEO9F-11" value="&lt;font style=&quot;font-size: 15px;&quot;&gt;1&lt;/font&gt;" style="edgeLabel;html=1;align=center;verticalAlign=middle;resizable=0;points=[];" parent="kRjih3Sgi1PEuBWdEO9F-9" vertex="1" connectable="0">
          <mxGeometry x="0.4216" y="-3" relative="1" as="geometry">
            <mxPoint as="offset" />
          </mxGeometry>
        </mxCell>
        <mxCell id="kRjih3Sgi1PEuBWdEO9F-13" value="&lt;font style=&quot;font-size: 14px;&quot;&gt;n&lt;/font&gt;" style="endArrow=none;html=1;rounded=0;entryX=1;entryY=0.5;entryDx=0;entryDy=0;exitX=0;exitY=0.5;exitDx=0;exitDy=0;" parent="1" source="N4vXA2fX9hWh01HENjKw-91" target="ZUEVyyYSkHnO5qGNUlor-7" edge="1">
          <mxGeometry x="-0.6013" y="1" width="50" height="50" relative="1" as="geometry">
            <mxPoint x="676" y="1140" as="sourcePoint" />
            <mxPoint x="626" y="1217" as="targetPoint" />
            <mxPoint as="offset" />
          </mxGeometry>
        </mxCell>
        <mxCell id="kRjih3Sgi1PEuBWdEO9F-14" value="" style="endArrow=none;dashed=1;html=1;rounded=0;exitX=0;exitY=0.5;exitDx=0;exitDy=0;entryX=1;entryY=0.5;entryDx=0;entryDy=0;" parent="1" source="ZUEVyyYSkHnO5qGNUlor-7" edge="1">
          <mxGeometry width="50" height="50" relative="1" as="geometry">
            <mxPoint x="561" y="1167" as="sourcePoint" />
            <mxPoint x="426" y="1187" as="targetPoint" />
          </mxGeometry>
        </mxCell>
        <mxCell id="kRjih3Sgi1PEuBWdEO9F-16" value="&lt;font style=&quot;font-size: 14px;&quot;&gt;1&lt;/font&gt;" style="edgeLabel;html=1;align=center;verticalAlign=middle;resizable=0;points=[];" parent="kRjih3Sgi1PEuBWdEO9F-14" vertex="1" connectable="0">
          <mxGeometry x="0.3257" y="-1" relative="1" as="geometry">
            <mxPoint as="offset" />
          </mxGeometry>
        </mxCell>
        <mxCell id="kRjih3Sgi1PEuBWdEO9F-18" value="" style="endArrow=none;html=1;rounded=0;entryX=1;entryY=0.5;entryDx=0;entryDy=0;exitX=0;exitY=0.5;exitDx=0;exitDy=0;" parent="1" source="N4vXA2fX9hWh01HENjKw-76" target="ZUEVyyYSkHnO5qGNUlor-26" edge="1">
          <mxGeometry width="50" height="50" relative="1" as="geometry">
            <mxPoint x="676" y="1462" as="sourcePoint" />
            <mxPoint x="386" y="1473" as="targetPoint" />
          </mxGeometry>
        </mxCell>
        <mxCell id="kRjih3Sgi1PEuBWdEO9F-19" value="&lt;font style=&quot;font-size: 14px;&quot;&gt;n&lt;/font&gt;" style="edgeLabel;html=1;align=center;verticalAlign=middle;resizable=0;points=[];" parent="kRjih3Sgi1PEuBWdEO9F-18" vertex="1" connectable="0">
          <mxGeometry x="-0.5554" y="1" relative="1" as="geometry">
            <mxPoint as="offset" />
          </mxGeometry>
        </mxCell>
        <mxCell id="__Lrwfwbu_zSNdDB98nG-1" value="Services" style="swimlane;fontStyle=1;align=center;verticalAlign=top;childLayout=stackLayout;horizontal=1;startSize=26;horizontalStack=0;resizeParent=1;resizeParentMax=0;resizeLast=0;collapsible=1;marginBottom=0;whiteSpace=wrap;html=1;" vertex="1" parent="1">
          <mxGeometry x="1006" y="1402" width="160" height="112" as="geometry" />
        </mxCell>
        <mxCell id="__Lrwfwbu_zSNdDB98nG-2" value="&lt;u&gt;ServiceID&lt;/u&gt;" style="text;strokeColor=none;fillColor=none;align=left;verticalAlign=top;spacingLeft=4;spacingRight=4;overflow=hidden;rotatable=0;points=[[0,0.5],[1,0.5]];portConstraint=eastwest;whiteSpace=wrap;html=1;" vertex="1" parent="__Lrwfwbu_zSNdDB98nG-1">
          <mxGeometry y="26" width="160" height="26" as="geometry" />
        </mxCell>
        <mxCell id="__Lrwfwbu_zSNdDB98nG-3" value="ServiceDescription" style="text;strokeColor=none;fillColor=none;align=left;verticalAlign=top;spacingLeft=4;spacingRight=4;overflow=hidden;rotatable=0;points=[[0,0.5],[1,0.5]];portConstraint=eastwest;whiteSpace=wrap;html=1;" vertex="1" parent="__Lrwfwbu_zSNdDB98nG-1">
          <mxGeometry y="52" width="160" height="32" as="geometry" />
        </mxCell>
        <mxCell id="__Lrwfwbu_zSNdDB98nG-4" value="&lt;div&gt;&lt;div&gt;Amount&lt;/div&gt;&lt;/div&gt;" style="text;strokeColor=none;fillColor=none;align=left;verticalAlign=top;spacingLeft=4;spacingRight=4;overflow=hidden;rotatable=0;points=[[0,0.5],[1,0.5]];portConstraint=eastwest;whiteSpace=wrap;html=1;" vertex="1" parent="__Lrwfwbu_zSNdDB98nG-1">
          <mxGeometry y="84" width="160" height="28" as="geometry" />
        </mxCell>
        <mxCell id="__Lrwfwbu_zSNdDB98nG-5" value="" style="endArrow=none;html=1;rounded=0;entryX=1;entryY=0.5;entryDx=0;entryDy=0;exitX=0;exitY=0.5;exitDx=0;exitDy=0;" edge="1" parent="1" source="__Lrwfwbu_zSNdDB98nG-7" target="N4vXA2fX9hWh01HENjKw-74">
          <mxGeometry width="50" height="50" relative="1" as="geometry">
            <mxPoint x="956" y="1439" as="sourcePoint" />
            <mxPoint x="666" y="1450" as="targetPoint" />
          </mxGeometry>
        </mxCell>
        <mxCell id="__Lrwfwbu_zSNdDB98nG-6" value="&lt;font style=&quot;font-size: 14px;&quot;&gt;n&lt;/font&gt;" style="edgeLabel;html=1;align=center;verticalAlign=middle;resizable=0;points=[];" vertex="1" connectable="0" parent="__Lrwfwbu_zSNdDB98nG-5">
          <mxGeometry x="-0.5554" y="1" relative="1" as="geometry">
            <mxPoint x="-90" y="-20" as="offset" />
          </mxGeometry>
        </mxCell>
        <mxCell id="__Lrwfwbu_zSNdDB98nG-7" value="include" style="rhombus;whiteSpace=wrap;html=1;" vertex="1" parent="1">
          <mxGeometry x="812" y="1402" width="80" height="80" as="geometry" />
        </mxCell>
        <mxCell id="__Lrwfwbu_zSNdDB98nG-8" value="" style="endArrow=none;dashed=1;html=1;rounded=0;exitX=-0.008;exitY=0.95;exitDx=0;exitDy=0;entryX=1;entryY=0.5;entryDx=0;entryDy=0;exitPerimeter=0;" edge="1" parent="1" source="__Lrwfwbu_zSNdDB98nG-2" target="__Lrwfwbu_zSNdDB98nG-7">
          <mxGeometry width="50" height="50" relative="1" as="geometry">
            <mxPoint x="1228" y="1454" as="sourcePoint" />
            <mxPoint x="938" y="1431" as="targetPoint" />
          </mxGeometry>
        </mxCell>
        <mxCell id="__Lrwfwbu_zSNdDB98nG-9" value="&lt;span style=&quot;font-size: 14px;&quot;&gt;n&lt;/span&gt;" style="edgeLabel;html=1;align=center;verticalAlign=middle;resizable=0;points=[];" vertex="1" connectable="0" parent="__Lrwfwbu_zSNdDB98nG-8">
          <mxGeometry x="0.7793" y="-3" relative="1" as="geometry">
            <mxPoint x="82" y="10" as="offset" />
          </mxGeometry>
        </mxCell>
      </root>
    </mxGraphModel>
  </diagram>
  <diagram id="hlk2RuQl20aUgnb7WOrX" name="Relation Schema">
    <mxGraphModel dx="1683" dy="2035" grid="1" gridSize="10" guides="1" tooltips="1" connect="1" arrows="1" fold="1" page="1" pageScale="1" pageWidth="827" pageHeight="1169" math="0" shadow="0">
      <root>
        <mxCell id="0" />
        <mxCell id="1" parent="0" />
        <mxCell id="gQtkKZseopssrGIlvcxh-1" value="PersonalTrainingSessions" style="swimlane;childLayout=stackLayout;horizontal=1;startSize=32;horizontalStack=0;rounded=1;fontSize=14;fontStyle=0;strokeWidth=2;resizeParent=0;resizeLast=1;shadow=0;dashed=0;align=center;arcSize=4;whiteSpace=wrap;html=1;" vertex="1" parent="1">
          <mxGeometry x="1430" y="-1006" width="180" height="194" as="geometry" />
        </mxCell>
        <mxCell id="gQtkKZseopssrGIlvcxh-2" value="&lt;b style=&quot;text-wrap: wrap;&quot;&gt;&lt;u&gt;SessionID&lt;/u&gt;&lt;/b&gt;&lt;br style=&quot;text-wrap: wrap; border-color: var(--border-color);&quot;&gt;&lt;br style=&quot;text-wrap: wrap; border-color: var(--border-color);&quot;&gt;&lt;span style=&quot;text-wrap: wrap;&quot;&gt;SessionSchedule&lt;/span&gt;&lt;br style=&quot;text-wrap: wrap; border-color: var(--border-color);&quot;&gt;&lt;br style=&quot;text-wrap: wrap; border-color: var(--border-color);&quot;&gt;&lt;span style=&quot;text-wrap: wrap;&quot;&gt;Time&lt;/span&gt;&lt;br style=&quot;text-wrap: wrap;&quot;&gt;&lt;b style=&quot;text-wrap: wrap;&quot;&gt;&lt;i&gt;&lt;br&gt;TrainerID&lt;/i&gt;&lt;/b&gt;&lt;div&gt;&lt;b style=&quot;text-wrap: wrap;&quot;&gt;&lt;i&gt;&lt;br&gt;&lt;/i&gt;&lt;/b&gt;&lt;/div&gt;&lt;div&gt;&lt;b style=&quot;text-wrap: wrap;&quot;&gt;&lt;i&gt;MemberID&lt;/i&gt;&lt;/b&gt;&lt;b style=&quot;text-wrap: wrap;&quot;&gt;&lt;i&gt;&lt;br&gt;&lt;/i&gt;&lt;/b&gt;&lt;/div&gt;" style="align=left;strokeColor=none;fillColor=none;spacingLeft=4;fontSize=12;verticalAlign=top;resizable=0;rotatable=0;part=1;html=1;" vertex="1" parent="gQtkKZseopssrGIlvcxh-1">
          <mxGeometry y="32" width="180" height="162" as="geometry" />
        </mxCell>
        <mxCell id="gQtkKZseopssrGIlvcxh-8" value="&lt;b style=&quot;font-size: 12px;&quot;&gt;Trainers&lt;/b&gt;" style="swimlane;childLayout=stackLayout;horizontal=1;startSize=50;horizontalStack=0;rounded=1;fontSize=14;fontStyle=0;strokeWidth=2;resizeParent=0;resizeLast=1;shadow=0;dashed=0;align=center;arcSize=4;whiteSpace=wrap;html=1;" vertex="1" parent="1">
          <mxGeometry x="1134" y="-1140" width="166" height="238" as="geometry" />
        </mxCell>
        <mxCell id="gQtkKZseopssrGIlvcxh-9" value="&lt;u style=&quot;text-wrap: wrap;&quot;&gt;&lt;b&gt;&lt;span style=&quot;border-color: var(--border-color);&quot;&gt;TrainerID&lt;/span&gt;&lt;br style=&quot;border-color: var(--border-color);&quot;&gt;&lt;/b&gt;&lt;/u&gt;&lt;br style=&quot;text-wrap: wrap; border-color: var(--border-color);&quot;&gt;&lt;span style=&quot;text-wrap: wrap;&quot;&gt;FirstName&lt;/span&gt;&lt;div style=&quot;text-wrap: wrap;&quot;&gt;&lt;br&gt;LastName&lt;br style=&quot;border-color: var(--border-color);&quot;&gt;&lt;br style=&quot;border-color: var(--border-color);&quot;&gt;Email&lt;br&gt;&lt;br&gt;Password&lt;br&gt;&lt;br&gt;Availability&amp;nbsp;&lt;/div&gt;" style="align=left;strokeColor=none;fillColor=none;spacingLeft=4;fontSize=12;verticalAlign=top;resizable=0;rotatable=0;part=1;html=1;" vertex="1" parent="gQtkKZseopssrGIlvcxh-8">
          <mxGeometry y="50" width="166" height="188" as="geometry" />
        </mxCell>
        <mxCell id="gQtkKZseopssrGIlvcxh-10" value="&lt;b style=&quot;font-size: 12px;&quot;&gt;Personalized Dashboard&lt;/b&gt;" style="swimlane;childLayout=stackLayout;horizontal=1;startSize=50;horizontalStack=0;rounded=1;fontSize=14;fontStyle=0;strokeWidth=2;resizeParent=0;resizeLast=1;shadow=0;dashed=0;align=center;arcSize=4;whiteSpace=wrap;html=1;" vertex="1" parent="1">
          <mxGeometry x="1150" y="-420" width="170" height="250" as="geometry" />
        </mxCell>
        <mxCell id="gQtkKZseopssrGIlvcxh-11" value="&lt;b style=&quot;text-wrap: wrap;&quot;&gt;&lt;u&gt;DashboardID&lt;/u&gt;&lt;/b&gt;&lt;br style=&quot;text-wrap: wrap;&quot;&gt;&lt;br style=&quot;text-wrap: wrap;&quot;&gt;&lt;span style=&quot;text-wrap: wrap;&quot;&gt;ExerciseRoutines&lt;/span&gt;&lt;br style=&quot;text-wrap: wrap;&quot;&gt;&lt;br style=&quot;text-wrap: wrap;&quot;&gt;&lt;span style=&quot;text-wrap: wrap;&quot;&gt;FitenessGoals&lt;/span&gt;&lt;div style=&quot;text-wrap: wrap;&quot;&gt;&lt;br&gt;FitnessAchievment&lt;br&gt;&lt;br&gt;HealthMetrics&lt;br&gt;&lt;br&gt;HealthStatistics&lt;br&gt;&lt;br&gt;&lt;i style=&quot;font-weight: bold;&quot;&gt;MemberID&lt;/i&gt;&lt;/div&gt;" style="align=left;strokeColor=none;fillColor=none;spacingLeft=4;fontSize=12;verticalAlign=top;resizable=0;rotatable=0;part=1;html=1;" vertex="1" parent="gQtkKZseopssrGIlvcxh-10">
          <mxGeometry y="50" width="170" height="200" as="geometry" />
        </mxCell>
        <mxCell id="gQtkKZseopssrGIlvcxh-12" value="&lt;b style=&quot;font-size: 12px;&quot;&gt;Members&lt;/b&gt;" style="swimlane;childLayout=stackLayout;horizontal=1;startSize=50;horizontalStack=0;rounded=1;fontSize=14;fontStyle=0;strokeWidth=2;resizeParent=0;resizeLast=1;shadow=0;dashed=0;align=center;arcSize=4;whiteSpace=wrap;html=1;" vertex="1" parent="1">
          <mxGeometry x="1134" y="-840" width="186" height="350" as="geometry" />
        </mxCell>
        <mxCell id="gQtkKZseopssrGIlvcxh-13" value="&lt;div&gt;&lt;b style=&quot;text-wrap: wrap;&quot;&gt;&lt;u&gt;&lt;br&gt;&lt;/u&gt;&lt;/b&gt;&lt;/div&gt;&lt;b style=&quot;text-wrap: wrap;&quot;&gt;&lt;u&gt;MemberID&lt;br&gt;&lt;/u&gt;&lt;/b&gt;&lt;br style=&quot;text-wrap: wrap;&quot;&gt;&lt;span style=&quot;text-wrap: wrap;&quot;&gt;FirstName&lt;/span&gt;&lt;div&gt;&lt;br style=&quot;text-wrap: wrap;&quot;&gt;&lt;span style=&quot;text-wrap: wrap;&quot;&gt;LastName&lt;/span&gt;&lt;br style=&quot;text-wrap: wrap;&quot;&gt;&lt;br style=&quot;text-wrap: wrap;&quot;&gt;&lt;span style=&quot;text-wrap: wrap;&quot;&gt;Email&lt;/span&gt;&lt;br style=&quot;text-wrap: wrap;&quot;&gt;&lt;br style=&quot;text-wrap: wrap;&quot;&gt;&lt;span style=&quot;text-wrap: wrap;&quot;&gt;Password&lt;/span&gt;&lt;/div&gt;&lt;div&gt;&lt;br style=&quot;text-wrap: wrap;&quot;&gt;&lt;span style=&quot;text-wrap: wrap;&quot;&gt;DOB&lt;/span&gt;&lt;/div&gt;&lt;div&gt;&lt;span style=&quot;text-wrap: wrap;&quot;&gt;&lt;br&gt;&lt;/span&gt;&lt;/div&gt;&lt;div&gt;&lt;span style=&quot;text-wrap: wrap;&quot;&gt;StreetName&lt;/span&gt;&lt;br style=&quot;text-wrap: wrap;&quot;&gt;&lt;span style=&quot;text-wrap: wrap;&quot;&gt;&lt;br&gt;&lt;/span&gt;&lt;/div&gt;&lt;div&gt;&lt;span style=&quot;text-wrap: wrap;&quot;&gt;City&lt;/span&gt;&lt;br style=&quot;text-wrap: wrap;&quot;&gt;&lt;span style=&quot;text-wrap: wrap;&quot;&gt;&lt;br&gt;&lt;/span&gt;&lt;/div&gt;&lt;div&gt;&lt;span style=&quot;text-wrap: wrap;&quot;&gt;Province&lt;/span&gt;&lt;br style=&quot;text-wrap: wrap;&quot;&gt;&lt;span style=&quot;text-wrap: wrap;&quot;&gt;&lt;br&gt;&lt;/span&gt;&lt;/div&gt;&lt;div&gt;&lt;span style=&quot;text-wrap: wrap;&quot;&gt;PostalCode&lt;/span&gt;&lt;br style=&quot;text-wrap: wrap;&quot;&gt;&lt;br style=&quot;text-wrap: wrap;&quot;&gt;&lt;/div&gt;" style="align=left;strokeColor=none;fillColor=none;spacingLeft=4;fontSize=12;verticalAlign=top;resizable=0;rotatable=0;part=1;html=1;" vertex="1" parent="gQtkKZseopssrGIlvcxh-12">
          <mxGeometry y="50" width="186" height="300" as="geometry" />
        </mxCell>
        <mxCell id="wOihAJa5Kw5_IOTGdjGK-5" value="Services" style="swimlane;childLayout=stackLayout;horizontal=1;startSize=32;horizontalStack=0;rounded=1;fontSize=14;fontStyle=0;strokeWidth=2;resizeParent=0;resizeLast=1;shadow=0;dashed=0;align=center;arcSize=4;whiteSpace=wrap;html=1;" vertex="1" parent="1">
          <mxGeometry x="1430" y="-240" width="163" height="116" as="geometry" />
        </mxCell>
        <mxCell id="wOihAJa5Kw5_IOTGdjGK-6" value="&lt;b style=&quot;text-decoration-line: underline;&quot;&gt;ServiceID&lt;/b&gt;&lt;br&gt;&lt;br&gt;ServiceDescription&lt;br&gt;&lt;br&gt;Amount" style="align=left;strokeColor=none;fillColor=none;spacingLeft=4;fontSize=12;verticalAlign=top;resizable=0;rotatable=0;part=1;html=1;" vertex="1" parent="wOihAJa5Kw5_IOTGdjGK-5">
          <mxGeometry y="32" width="163" height="84" as="geometry" />
        </mxCell>
        <mxCell id="wOihAJa5Kw5_IOTGdjGK-18" value="&lt;span style=&quot;color: rgba(0, 0, 0, 0); font-family: monospace; font-size: 0px; text-align: start;&quot;&gt;%3CmxGraphModel%3E%3Croot%3E%3CmxCell%20id%3D%220%22%2F%3E%3CmxCell%20id%3D%221%22%20parent%3D%220%22%2F%3E%3CmxCell%20id%3D%222%22%20value%3D%22Rooms_Equipment%22%20style%3D%22swimlane%3BchildLayout%3DstackLayout%3Bhorizontal%3D1%3BstartSize%3D32%3BhorizontalStack%3D0%3Brounded%3D1%3BfontSize%3D14%3BfontStyle%3D0%3BstrokeWidth%3D2%3BresizeParent%3D0%3BresizeLast%3D1%3Bshadow%3D0%3Bdashed%3D0%3Balign%3Dcenter%3BarcSize%3D4%3BwhiteSpace%3Dwrap%3Bhtml%3D1%3B%22%20vertex%3D%221%22%20parent%3D%221%22%3E%3CmxGeometry%20x%3D%221050%22%20y%3D%22-60%22%20width%3D%22163%22%20height%3D%22116%22%20as%3D%22geometry%22%2F%3E%3C%2FmxCell%3E%3C%2Froot%3E%3C%2FmxGraphModel%3E&lt;/span&gt;" style="text;html=1;align=center;verticalAlign=middle;resizable=0;points=[];autosize=1;strokeColor=none;fillColor=none;" vertex="1" parent="1">
          <mxGeometry x="700" y="-812" width="20" height="30" as="geometry" />
        </mxCell>
        <mxCell id="wOihAJa5Kw5_IOTGdjGK-27" value="SessionDuration" style="swimlane;childLayout=stackLayout;horizontal=1;startSize=32;horizontalStack=0;rounded=1;fontSize=14;fontStyle=0;strokeWidth=2;resizeParent=0;resizeLast=1;shadow=0;dashed=0;align=center;arcSize=4;whiteSpace=wrap;html=1;" vertex="1" parent="1">
          <mxGeometry x="709.9999999999999" y="-1130" width="163" height="116" as="geometry" />
        </mxCell>
        <mxCell id="wOihAJa5Kw5_IOTGdjGK-28" value="&lt;div&gt;Duration&lt;b style=&quot;text-decoration-line: underline;&quot;&gt;&lt;br&gt;&lt;/b&gt;&lt;/div&gt;&lt;div&gt;&lt;br&gt;&lt;/div&gt;&lt;div&gt;&lt;b style=&quot;text-decoration-line: underline;&quot;&gt;TrainerID&lt;/b&gt;&lt;br&gt;&lt;/div&gt;&lt;div&gt;&lt;b style=&quot;text-decoration-line: underline;&quot;&gt;&lt;br&gt;&lt;/b&gt;&lt;/div&gt;&lt;b style=&quot;text-decoration-line: underline;&quot;&gt;MemberID&lt;/b&gt;&lt;br&gt;&lt;div&gt;&lt;br/&gt;&lt;/div&gt;" style="align=left;strokeColor=none;fillColor=none;spacingLeft=4;fontSize=12;verticalAlign=top;resizable=0;rotatable=0;part=1;html=1;" vertex="1" parent="wOihAJa5Kw5_IOTGdjGK-27">
          <mxGeometry y="32" width="163" height="84" as="geometry" />
        </mxCell>
        <mxCell id="pIWzGOn2-RXyKYuMY6gu-1" value="Classes" style="swimlane;childLayout=stackLayout;horizontal=1;startSize=32;horizontalStack=0;rounded=1;fontSize=14;fontStyle=0;strokeWidth=2;resizeParent=0;resizeLast=1;shadow=0;dashed=0;align=center;arcSize=4;whiteSpace=wrap;html=1;" vertex="1" parent="1">
          <mxGeometry x="710" y="-872" width="167" height="150" as="geometry" />
        </mxCell>
        <mxCell id="pIWzGOn2-RXyKYuMY6gu-2" value="&lt;b style=&quot;text-wrap: wrap;&quot;&gt;&lt;u&gt;ClassID&lt;/u&gt;&lt;/b&gt;&lt;br style=&quot;text-wrap: wrap; border-color: var(--border-color);&quot;&gt;&lt;br style=&quot;text-wrap: wrap; border-color: var(--border-color);&quot;&gt;&lt;span style=&quot;text-wrap: wrap;&quot;&gt;Name&lt;/span&gt;&lt;br style=&quot;text-wrap: wrap; border-color: var(--border-color);&quot;&gt;&lt;br style=&quot;text-wrap: wrap; border-color: var(--border-color);&quot;&gt;&lt;span style=&quot;text-wrap: wrap;&quot;&gt;Description&lt;/span&gt;&lt;div&gt;&lt;span style=&quot;text-wrap: wrap;&quot;&gt;&lt;br&gt;&lt;/span&gt;&lt;div&gt;ScheduledTime&lt;br style=&quot;text-wrap: wrap;&quot;&gt;&lt;br style=&quot;text-wrap: wrap;&quot;&gt;&lt;br style=&quot;text-wrap: wrap;&quot;&gt;&lt;/div&gt;&lt;/div&gt;" style="align=left;strokeColor=none;fillColor=none;spacingLeft=4;fontSize=12;verticalAlign=top;resizable=0;rotatable=0;part=1;html=1;" vertex="1" parent="pIWzGOn2-RXyKYuMY6gu-1">
          <mxGeometry y="32" width="167" height="118" as="geometry" />
        </mxCell>
        <mxCell id="5JwowW4n-d19HwZ-sy0A-1" value="Members_Classes" style="swimlane;childLayout=stackLayout;horizontal=1;startSize=32;horizontalStack=0;rounded=1;fontSize=14;fontStyle=0;strokeWidth=2;resizeParent=0;resizeLast=1;shadow=0;dashed=0;align=center;arcSize=4;whiteSpace=wrap;html=1;" vertex="1" parent="1">
          <mxGeometry x="849.9999999999999" y="-650" width="163" height="116" as="geometry" />
        </mxCell>
        <mxCell id="5JwowW4n-d19HwZ-sy0A-2" value="&lt;b&gt;&lt;u&gt;&lt;i&gt;MemberID&lt;br&gt;&lt;br&gt;ClassID&lt;/i&gt;&lt;/u&gt;&lt;/b&gt;" style="align=left;strokeColor=none;fillColor=none;spacingLeft=4;fontSize=12;verticalAlign=top;resizable=0;rotatable=0;part=1;html=1;" vertex="1" parent="5JwowW4n-d19HwZ-sy0A-1">
          <mxGeometry y="32" width="163" height="84" as="geometry" />
        </mxCell>
        <mxCell id="6A_fkF5HWeY6PiiEb8P2-1" value="AdminstrativeStaff" style="swimlane;childLayout=stackLayout;horizontal=1;startSize=32;horizontalStack=0;rounded=1;fontSize=14;fontStyle=0;strokeWidth=2;resizeParent=0;resizeLast=1;shadow=0;dashed=0;align=center;arcSize=4;whiteSpace=wrap;html=1;" vertex="1" parent="1">
          <mxGeometry x="1040" y="160" width="170" height="180" as="geometry" />
        </mxCell>
        <mxCell id="6A_fkF5HWeY6PiiEb8P2-2" value="&lt;b style=&quot;text-wrap: wrap;&quot;&gt;&lt;u&gt;StaffID&lt;/u&gt;&lt;/b&gt;&lt;br style=&quot;text-wrap: wrap; border-color: var(--border-color);&quot;&gt;&lt;br style=&quot;text-wrap: wrap; border-color: var(--border-color);&quot;&gt;&lt;span style=&quot;text-wrap: wrap;&quot;&gt;FirstName&lt;/span&gt;&lt;div&gt;&lt;br style=&quot;text-wrap: wrap;&quot;&gt;&lt;span style=&quot;text-wrap: wrap;&quot;&gt;Lastname&lt;/span&gt;&lt;br style=&quot;text-wrap: wrap; border-color: var(--border-color);&quot;&gt;&lt;br style=&quot;text-wrap: wrap;&quot;&gt;&lt;span style=&quot;text-wrap: wrap;&quot;&gt;Email&lt;/span&gt;&lt;br style=&quot;text-wrap: wrap;&quot;&gt;&lt;br style=&quot;text-wrap: wrap;&quot;&gt;&lt;span style=&quot;text-wrap: wrap;&quot;&gt;Password&lt;/span&gt;&lt;/div&gt;" style="align=left;strokeColor=none;fillColor=none;spacingLeft=4;fontSize=12;verticalAlign=top;resizable=0;rotatable=0;part=1;html=1;" vertex="1" parent="6A_fkF5HWeY6PiiEb8P2-1">
          <mxGeometry y="32" width="170" height="148" as="geometry" />
        </mxCell>
        <mxCell id="uZmv9ZcvRiSqscGb-NYC-4" value="Classes_Rooms" style="swimlane;childLayout=stackLayout;horizontal=1;startSize=32;horizontalStack=0;rounded=1;fontSize=14;fontStyle=0;strokeWidth=2;resizeParent=0;resizeLast=1;shadow=0;dashed=0;align=center;arcSize=4;whiteSpace=wrap;html=1;" vertex="1" parent="1">
          <mxGeometry x="640" y="-190" width="163" height="116" as="geometry" />
        </mxCell>
        <mxCell id="uZmv9ZcvRiSqscGb-NYC-5" value="&lt;b&gt;&lt;u&gt;&lt;i&gt;RoomID&lt;br&gt;&lt;br&gt;ClassID&lt;/i&gt;&lt;/u&gt;&lt;/b&gt;" style="align=left;strokeColor=none;fillColor=none;spacingLeft=4;fontSize=12;verticalAlign=top;resizable=0;rotatable=0;part=1;html=1;" vertex="1" parent="uZmv9ZcvRiSqscGb-NYC-4">
          <mxGeometry y="32" width="163" height="84" as="geometry" />
        </mxCell>
        <mxCell id="uZmv9ZcvRiSqscGb-NYC-6" value="Rooms" style="swimlane;childLayout=stackLayout;horizontal=1;startSize=32;horizontalStack=0;rounded=1;fontSize=14;fontStyle=0;strokeWidth=2;resizeParent=0;resizeLast=1;shadow=0;dashed=0;align=center;arcSize=4;whiteSpace=wrap;html=1;" vertex="1" parent="1">
          <mxGeometry x="720" y="230" width="170" height="170" as="geometry" />
        </mxCell>
        <mxCell id="uZmv9ZcvRiSqscGb-NYC-7" value="&lt;b style=&quot;text-wrap: wrap;&quot;&gt;&lt;u&gt;&lt;span style=&quot;border-color: var(--border-color);&quot;&gt;RoomID&lt;/span&gt;&lt;br style=&quot;border-color: var(--border-color);&quot;&gt;&lt;/u&gt;&lt;/b&gt;&lt;br style=&quot;text-wrap: wrap; border-color: var(--border-color);&quot;&gt;&lt;span style=&quot;text-wrap: wrap;&quot;&gt;Name&lt;/span&gt;&lt;br style=&quot;text-wrap: wrap; border-color: var(--border-color);&quot;&gt;&lt;br style=&quot;text-wrap: wrap; border-color: var(--border-color);&quot;&gt;&lt;span style=&quot;text-wrap: wrap;&quot;&gt;RoomType&lt;/span&gt;&lt;br style=&quot;text-wrap: wrap;&quot;&gt;&lt;br style=&quot;text-wrap: wrap; border-color: var(--border-color);&quot;&gt;&lt;span style=&quot;text-wrap: wrap;&quot;&gt;Availability&lt;/span&gt;&lt;br style=&quot;text-wrap: wrap;&quot;&gt;&lt;br style=&quot;text-wrap: wrap;&quot;&gt;&lt;b style=&quot;text-wrap: wrap;&quot;&gt;&lt;i&gt;StaffID&lt;/i&gt;&lt;/b&gt;" style="align=left;strokeColor=none;fillColor=none;spacingLeft=4;fontSize=12;verticalAlign=top;resizable=0;rotatable=0;part=1;html=1;" vertex="1" parent="uZmv9ZcvRiSqscGb-NYC-6">
          <mxGeometry y="32" width="170" height="138" as="geometry" />
        </mxCell>
        <mxCell id="n86TTMoEgYtLTtcpfjT3-2" value="Rooms_Equipment" style="swimlane;childLayout=stackLayout;horizontal=1;startSize=32;horizontalStack=0;rounded=1;fontSize=14;fontStyle=0;strokeWidth=2;resizeParent=0;resizeLast=1;shadow=0;dashed=0;align=center;arcSize=4;whiteSpace=wrap;html=1;" vertex="1" parent="1">
          <mxGeometry x="930" y="-80" width="163" height="116" as="geometry" />
        </mxCell>
        <mxCell id="n86TTMoEgYtLTtcpfjT3-3" value="&lt;b&gt;&lt;u&gt;&lt;i&gt;RoomID&lt;br&gt;&lt;br&gt;EquipmentID&lt;/i&gt;&lt;/u&gt;&lt;/b&gt;" style="align=left;strokeColor=none;fillColor=none;spacingLeft=4;fontSize=12;verticalAlign=top;resizable=0;rotatable=0;part=1;html=1;" vertex="1" parent="n86TTMoEgYtLTtcpfjT3-2">
          <mxGeometry y="32" width="163" height="84" as="geometry" />
        </mxCell>
        <mxCell id="n86TTMoEgYtLTtcpfjT3-4" value="Equipment" style="swimlane;childLayout=stackLayout;horizontal=1;startSize=32;horizontalStack=0;rounded=1;fontSize=14;fontStyle=0;strokeWidth=2;resizeParent=0;resizeLast=1;shadow=0;dashed=0;align=center;arcSize=4;whiteSpace=wrap;html=1;" vertex="1" parent="1">
          <mxGeometry x="1380" y="10" width="170" height="170" as="geometry" />
        </mxCell>
        <mxCell id="n86TTMoEgYtLTtcpfjT3-5" value="&lt;b style=&quot;text-wrap: wrap;&quot;&gt;&lt;u&gt;EquipmentID&lt;/u&gt;&lt;/b&gt;&lt;br style=&quot;text-wrap: wrap; border-color: var(--border-color);&quot;&gt;&lt;br style=&quot;text-wrap: wrap; border-color: var(--border-color);&quot;&gt;&lt;span style=&quot;text-wrap: wrap;&quot;&gt;EquipmentType&lt;/span&gt;&lt;br style=&quot;text-wrap: wrap; border-color: var(--border-color);&quot;&gt;&lt;br style=&quot;text-wrap: wrap; border-color: var(--border-color);&quot;&gt;&lt;span style=&quot;text-wrap: wrap;&quot;&gt;Description&lt;/span&gt;&lt;br style=&quot;text-wrap: wrap; border-color: var(--border-color);&quot;&gt;&lt;br style=&quot;text-wrap: wrap;&quot;&gt;&lt;b style=&quot;text-wrap: wrap;&quot;&gt;&lt;i&gt;StaffID&lt;/i&gt;&lt;/b&gt;" style="align=left;strokeColor=none;fillColor=none;spacingLeft=4;fontSize=12;verticalAlign=top;resizable=0;rotatable=0;part=1;html=1;" vertex="1" parent="n86TTMoEgYtLTtcpfjT3-4">
          <mxGeometry y="32" width="170" height="138" as="geometry" />
        </mxCell>
        <mxCell id="Wuj8jLzqu-3Ai07r8ktl-1" value="&lt;span style=&quot;font-size: 12px;&quot;&gt;&lt;b&gt;Billing&lt;/b&gt;&lt;/span&gt;" style="swimlane;childLayout=stackLayout;horizontal=1;startSize=50;horizontalStack=0;rounded=1;fontSize=14;fontStyle=0;strokeWidth=2;resizeParent=0;resizeLast=1;shadow=0;dashed=0;align=center;arcSize=4;whiteSpace=wrap;html=1;" vertex="1" parent="1">
          <mxGeometry x="1440" y="-660" width="190" height="250" as="geometry" />
        </mxCell>
        <mxCell id="Wuj8jLzqu-3Ai07r8ktl-2" value="&lt;u style=&quot;text-wrap: wrap;&quot;&gt;&lt;b&gt;TransactionID&lt;/b&gt;&lt;/u&gt;&lt;br style=&quot;text-wrap: wrap; border-color: var(--border-color);&quot;&gt;&lt;br style=&quot;text-wrap: wrap; border-color: var(--border-color);&quot;&gt;&lt;span style=&quot;text-wrap: wrap;&quot;&gt;Date&lt;/span&gt;&lt;br style=&quot;text-wrap: wrap;&quot;&gt;&lt;br style=&quot;text-wrap: wrap;&quot;&gt;&lt;span style=&quot;text-wrap: wrap;&quot;&gt;PaymentMethod&amp;nbsp; &amp;nbsp;&amp;nbsp;&lt;/span&gt;&lt;div&gt;&lt;span style=&quot;text-wrap: wrap;&quot;&gt;&lt;br&gt;&lt;/span&gt;Service&lt;div&gt;&lt;b style=&quot;text-wrap: wrap;&quot;&gt;&lt;i&gt;&lt;br&gt;&lt;/i&gt;&lt;/b&gt;&lt;/div&gt;&lt;div&gt;&lt;b style=&quot;text-wrap: wrap;&quot;&gt;&lt;i&gt;MemberID&lt;/i&gt;&lt;/b&gt;&lt;/div&gt;&lt;div&gt;&lt;span style=&quot;text-wrap: wrap;&quot;&gt;&lt;b&gt;&lt;i&gt;&lt;br style=&quot;&quot;&gt;&lt;/i&gt;&lt;/b&gt;&lt;/span&gt;&lt;b style=&quot;text-wrap: wrap;&quot;&gt;&lt;i&gt;ServiceID&lt;/i&gt;&lt;/b&gt;&lt;div&gt;&lt;span style=&quot;text-wrap: wrap;&quot;&gt;&lt;b&gt;&lt;i&gt;&lt;br&gt;&lt;/i&gt;&lt;/b&gt;&lt;/span&gt;&lt;div&gt;&lt;b style=&quot;text-wrap: wrap;&quot;&gt;&lt;i&gt;&lt;br&gt;&lt;/i&gt;&lt;/b&gt;&lt;/div&gt;&lt;/div&gt;&lt;/div&gt;&lt;/div&gt;" style="align=left;strokeColor=none;fillColor=none;spacingLeft=4;fontSize=12;verticalAlign=top;resizable=0;rotatable=0;part=1;html=1;" vertex="1" parent="Wuj8jLzqu-3Ai07r8ktl-1">
          <mxGeometry y="50" width="190" height="200" as="geometry" />
        </mxCell>
        <mxCell id="ksIJM0Q1U7wgiJ6X3lmW-3" value="" style="endArrow=classic;html=1;rounded=0;exitX=0;exitY=0.75;exitDx=0;exitDy=0;entryX=0.002;entryY=0.071;entryDx=0;entryDy=0;entryPerimeter=0;" edge="1" parent="1" source="wOihAJa5Kw5_IOTGdjGK-28" target="gQtkKZseopssrGIlvcxh-13">
          <mxGeometry width="50" height="50" relative="1" as="geometry">
            <mxPoint x="670.86" y="-1014" as="sourcePoint" />
            <mxPoint x="1093.0000000000002" y="-765.8" as="targetPoint" />
            <Array as="points">
              <mxPoint x="690" y="-1035" />
              <mxPoint x="690" y="-960" />
              <mxPoint x="1080" y="-960" />
              <mxPoint x="1080" y="-769" />
            </Array>
          </mxGeometry>
        </mxCell>
        <mxCell id="beUgcDkN7Z7_4NPJ906o-1" value="" style="endArrow=classic;html=1;rounded=0;exitX=0;exitY=0.75;exitDx=0;exitDy=0;entryX=-0.025;entryY=0.094;entryDx=0;entryDy=0;entryPerimeter=0;" edge="1" parent="1" source="Wuj8jLzqu-3Ai07r8ktl-2" target="gQtkKZseopssrGIlvcxh-13">
          <mxGeometry width="50" height="50" relative="1" as="geometry">
            <mxPoint x="1140" y="-420" as="sourcePoint" />
            <mxPoint x="1080" y="-760" as="targetPoint" />
            <Array as="points">
              <mxPoint x="1080" y="-460" />
              <mxPoint x="1080" y="-762" />
            </Array>
          </mxGeometry>
        </mxCell>
        <mxCell id="beUgcDkN7Z7_4NPJ906o-2" value="" style="endArrow=classic;html=1;rounded=0;entryX=-0.017;entryY=0.119;entryDx=0;entryDy=0;entryPerimeter=0;" edge="1" parent="1" target="gQtkKZseopssrGIlvcxh-13">
          <mxGeometry width="50" height="50" relative="1" as="geometry">
            <mxPoint x="1150" y="-190" as="sourcePoint" />
            <mxPoint x="1060" y="-370" as="targetPoint" />
            <Array as="points">
              <mxPoint x="1080" y="-190" />
              <mxPoint x="1080" y="-570" />
              <mxPoint x="1080" y="-754" />
            </Array>
          </mxGeometry>
        </mxCell>
        <mxCell id="fQUmR9kAn2LoopPownxA-1" value="" style="endArrow=classic;html=1;rounded=0;exitX=0;exitY=0.25;exitDx=0;exitDy=0;entryX=-0.021;entryY=0.134;entryDx=0;entryDy=0;entryPerimeter=0;" edge="1" parent="1" source="5JwowW4n-d19HwZ-sy0A-2" target="gQtkKZseopssrGIlvcxh-13">
          <mxGeometry width="50" height="50" relative="1" as="geometry">
            <mxPoint x="820" y="-640" as="sourcePoint" />
            <mxPoint x="870" y="-690" as="targetPoint" />
            <Array as="points">
              <mxPoint x="820" y="-597" />
              <mxPoint x="820" y="-680" />
              <mxPoint x="1030" y="-680" />
              <mxPoint x="1030" y="-750" />
              <mxPoint x="1080" y="-750" />
            </Array>
          </mxGeometry>
        </mxCell>
        <mxCell id="fQUmR9kAn2LoopPownxA-2" value="" style="endArrow=classic;html=1;rounded=0;exitX=0;exitY=0.5;exitDx=0;exitDy=0;entryX=-0.007;entryY=0.122;entryDx=0;entryDy=0;entryPerimeter=0;" edge="1" parent="1" source="5JwowW4n-d19HwZ-sy0A-2" target="pIWzGOn2-RXyKYuMY6gu-2">
          <mxGeometry width="50" height="50" relative="1" as="geometry">
            <mxPoint x="720" y="-580" as="sourcePoint" />
            <mxPoint x="770" y="-630" as="targetPoint" />
            <Array as="points">
              <mxPoint x="680" y="-576" />
              <mxPoint x="680" y="-824" />
            </Array>
          </mxGeometry>
        </mxCell>
        <mxCell id="Cgw9Luy1SOsXZ0waz14O-1" value="" style="endArrow=classic;html=1;rounded=0;exitX=0;exitY=0.75;exitDx=0;exitDy=0;entryX=-0.006;entryY=0.164;entryDx=0;entryDy=0;entryPerimeter=0;" edge="1" parent="1" source="uZmv9ZcvRiSqscGb-NYC-4" target="pIWzGOn2-RXyKYuMY6gu-2">
          <mxGeometry width="50" height="50" relative="1" as="geometry">
            <mxPoint x="530" y="-250" as="sourcePoint" />
            <mxPoint x="450" y="-360" as="targetPoint" />
            <Array as="points">
              <mxPoint x="610" y="-103" />
              <mxPoint x="620" y="-821" />
            </Array>
          </mxGeometry>
        </mxCell>
        <mxCell id="Cgw9Luy1SOsXZ0waz14O-2" value="" style="endArrow=classic;html=1;rounded=0;entryX=-0.026;entryY=0.128;entryDx=0;entryDy=0;entryPerimeter=0;" edge="1" parent="1" target="uZmv9ZcvRiSqscGb-NYC-7">
          <mxGeometry width="50" height="50" relative="1" as="geometry">
            <mxPoint x="640" y="-140" as="sourcePoint" />
            <mxPoint x="560" y="-130" as="targetPoint" />
            <Array as="points">
              <mxPoint x="590" y="-140" />
              <mxPoint x="590" y="-30" />
              <mxPoint x="590" y="280" />
            </Array>
          </mxGeometry>
        </mxCell>
        <mxCell id="Cgw9Luy1SOsXZ0waz14O-3" value="" style="endArrow=classic;html=1;rounded=0;exitX=-0.017;exitY=0.864;exitDx=0;exitDy=0;exitPerimeter=0;entryX=0;entryY=0.25;entryDx=0;entryDy=0;" edge="1" parent="1" source="Wuj8jLzqu-3Ai07r8ktl-2" target="wOihAJa5Kw5_IOTGdjGK-6">
          <mxGeometry width="50" height="50" relative="1" as="geometry">
            <mxPoint x="1400" y="-290" as="sourcePoint" />
            <mxPoint x="1450" y="-340" as="targetPoint" />
            <Array as="points">
              <mxPoint x="1400" y="-437" />
              <mxPoint x="1400" y="-187" />
            </Array>
          </mxGeometry>
        </mxCell>
        <mxCell id="Cgw9Luy1SOsXZ0waz14O-4" value="" style="endArrow=classic;html=1;rounded=0;exitX=0;exitY=0.5;exitDx=0;exitDy=0;entryX=0;entryY=0.156;entryDx=0;entryDy=0;entryPerimeter=0;" edge="1" parent="1" source="n86TTMoEgYtLTtcpfjT3-3" target="n86TTMoEgYtLTtcpfjT3-5">
          <mxGeometry width="50" height="50" relative="1" as="geometry">
            <mxPoint x="910" y="160" as="sourcePoint" />
            <mxPoint x="960" y="110" as="targetPoint" />
            <Array as="points">
              <mxPoint x="890" y="-6" />
              <mxPoint x="890" y="60" />
            </Array>
          </mxGeometry>
        </mxCell>
        <mxCell id="Cgw9Luy1SOsXZ0waz14O-5" value="" style="endArrow=classic;html=1;rounded=0;exitX=0;exitY=0.75;exitDx=0;exitDy=0;entryX=-0.026;entryY=0.102;entryDx=0;entryDy=0;entryPerimeter=0;" edge="1" parent="1" source="n86TTMoEgYtLTtcpfjT3-5" target="6A_fkF5HWeY6PiiEb8P2-2">
          <mxGeometry width="50" height="50" relative="1" as="geometry">
            <mxPoint x="1290" y="350" as="sourcePoint" />
            <mxPoint x="1340" y="300" as="targetPoint" />
            <Array as="points">
              <mxPoint x="990" y="146" />
              <mxPoint x="990" y="207" />
            </Array>
          </mxGeometry>
        </mxCell>
        <mxCell id="Cgw9Luy1SOsXZ0waz14O-6" value="" style="endArrow=classic;html=1;rounded=0;exitX=0;exitY=0.25;exitDx=0;exitDy=0;entryX=-0.03;entryY=0.069;entryDx=0;entryDy=0;entryPerimeter=0;" edge="1" parent="1" source="n86TTMoEgYtLTtcpfjT3-3" target="uZmv9ZcvRiSqscGb-NYC-7">
          <mxGeometry width="50" height="50" relative="1" as="geometry">
            <mxPoint x="690" y="190" as="sourcePoint" />
            <mxPoint x="740" y="140" as="targetPoint" />
            <Array as="points">
              <mxPoint x="690" y="-30" />
              <mxPoint x="690" y="270" />
            </Array>
          </mxGeometry>
        </mxCell>
        <mxCell id="Cgw9Luy1SOsXZ0waz14O-7" value="" style="endArrow=classic;html=1;rounded=0;exitX=-0.002;exitY=0.589;exitDx=0;exitDy=0;exitPerimeter=0;entryX=-0.011;entryY=0.138;entryDx=0;entryDy=0;entryPerimeter=0;" edge="1" parent="1" source="wOihAJa5Kw5_IOTGdjGK-28" target="gQtkKZseopssrGIlvcxh-9">
          <mxGeometry width="50" height="50" relative="1" as="geometry">
            <mxPoint x="590" y="-1080" as="sourcePoint" />
            <mxPoint x="640" y="-1130" as="targetPoint" />
            <Array as="points">
              <mxPoint x="660" y="-1050" />
              <mxPoint x="660" y="-1150" />
              <mxPoint x="1040" y="-1150" />
              <mxPoint x="1040" y="-1064" />
            </Array>
          </mxGeometry>
        </mxCell>
        <mxCell id="QruacPTHEU2KXHEyDhqv-1" value="" style="endArrow=classic;html=1;rounded=0;entryX=-0.002;entryY=0.075;entryDx=0;entryDy=0;entryPerimeter=0;" edge="1" parent="1" target="gQtkKZseopssrGIlvcxh-9">
          <mxGeometry width="50" height="50" relative="1" as="geometry">
            <mxPoint x="1430" y="-870" as="sourcePoint" />
            <mxPoint x="1410" y="-1060" as="targetPoint" />
            <Array as="points">
              <mxPoint x="1400" y="-870" />
              <mxPoint x="1400" y="-1160" />
              <mxPoint x="1110" y="-1160" />
              <mxPoint x="1110" y="-1076" />
            </Array>
          </mxGeometry>
        </mxCell>
        <mxCell id="QruacPTHEU2KXHEyDhqv-2" value="" style="endArrow=classic;html=1;rounded=0;exitX=0;exitY=0.75;exitDx=0;exitDy=0;entryX=-0.017;entryY=0.055;entryDx=0;entryDy=0;entryPerimeter=0;" edge="1" parent="1" source="gQtkKZseopssrGIlvcxh-2" target="gQtkKZseopssrGIlvcxh-13">
          <mxGeometry width="50" height="50" relative="1" as="geometry">
            <mxPoint x="1090" y="-820" as="sourcePoint" />
            <mxPoint x="1140" y="-870" as="targetPoint" />
            <Array as="points">
              <mxPoint x="1110" y="-850" />
              <mxPoint x="1110" y="-773" />
            </Array>
          </mxGeometry>
        </mxCell>
        <mxCell id="QruacPTHEU2KXHEyDhqv-3" value="" style="endArrow=classic;html=1;rounded=0;exitX=0;exitY=0.935;exitDx=0;exitDy=0;exitPerimeter=0;entryX=-0.034;entryY=0.164;entryDx=0;entryDy=0;entryPerimeter=0;" edge="1" parent="1" source="uZmv9ZcvRiSqscGb-NYC-7" target="6A_fkF5HWeY6PiiEb8P2-2">
          <mxGeometry width="50" height="50" relative="1" as="geometry">
            <mxPoint x="720" y="480" as="sourcePoint" />
            <mxPoint x="770" y="430" as="targetPoint" />
            <Array as="points">
              <mxPoint x="670" y="391" />
              <mxPoint x="670" y="430" />
              <mxPoint x="990" y="430" />
              <mxPoint x="990" y="216" />
            </Array>
          </mxGeometry>
        </mxCell>
      </root>
    </mxGraphModel>
  </diagram>
</mxfile>
